<svg width="215" height="221" viewBox="0 0 215 221" fill="none" xmlns="http://www.w3.org/2000/svg">
<g filter="url(#filter0_d_283_227)">
<path d="M191.535 119.322C199.84 119.315 206.584 126.09 206.59 134.462C206.597 142.833 199.864 149.619 191.56 149.626C183.255 149.633 176.511 142.858 176.505 134.486C176.498 126.115 183.231 119.329 191.535 119.322Z" fill="#FFEEAF" stroke="black"/>
<path d="M195.41 90.911C203.714 90.9044 210.458 97.6794 210.465 106.051C210.471 114.422 203.739 121.208 195.434 121.215C187.129 121.222 180.386 114.447 180.379 106.075C180.372 97.7036 187.105 90.9177 195.41 90.911Z" fill="#FFEEAF" stroke="black"/>
<path d="M191.535 63.7915C199.84 63.7848 206.584 70.5598 206.59 78.9313C206.597 87.3028 199.864 94.0887 191.56 94.0954C183.255 94.1021 176.511 87.327 176.505 78.9555C176.498 70.584 183.231 63.7981 191.535 63.7915Z" fill="#FFEEAF" stroke="black"/>
<path d="M176.038 39.2548C184.343 39.2481 191.087 46.0231 191.093 54.3946C191.1 62.7661 184.367 69.552 176.063 69.5587C167.758 69.5654 161.014 62.7903 161.007 54.4188C161.001 46.0473 167.733 39.2615 176.038 39.2548Z" fill="#FFEEAF" stroke="black"/>
<path d="M155.376 21.1751C163.681 21.1684 170.424 27.9434 170.431 36.3149C170.438 44.6864 163.705 51.4723 155.4 51.479C147.096 51.4857 140.352 44.7106 140.345 36.3391C140.338 27.9676 147.071 21.1818 155.376 21.1751Z" fill="#FFEEAF" stroke="black"/>
</g>
<g filter="url(#filter1_d_283_227)">
<path d="M100.718 193.04C100.484 201.342 93.5171 207.887 85.1489 207.651C76.7808 207.416 70.1923 200.49 70.4258 192.188C70.6592 183.887 77.6263 177.342 85.9945 177.577C94.3627 177.813 100.951 184.739 100.718 193.04Z" fill="#FFEEAF" stroke="black"/>
<path d="M129.005 197.734C128.771 206.036 121.804 212.581 113.436 212.345C105.068 212.11 98.4795 205.184 98.7129 196.882C98.9463 188.581 105.913 182.036 114.282 182.271C122.65 182.506 129.238 189.433 129.005 197.734Z" fill="#FFEEAF" stroke="black"/>
<path d="M156.225 194.646C155.992 202.947 149.024 209.492 140.656 209.257C132.288 209.021 125.7 202.095 125.933 193.794C126.166 185.492 133.134 178.947 141.502 179.183C149.87 179.418 156.458 186.344 156.225 194.646Z" fill="#FFEEAF" stroke="black"/>
<path d="M181.199 179.864C180.966 188.166 173.999 194.711 165.631 194.476C157.262 194.24 150.674 187.314 150.907 179.013C151.141 170.711 158.108 164.166 166.476 164.401C174.844 164.637 181.433 171.563 181.199 179.864Z" fill="#FFEEAF" stroke="black"/>
<path d="M199.869 159.733C199.636 168.035 192.669 174.58 184.3 174.344C175.932 174.109 169.344 167.183 169.577 158.882C169.811 150.58 176.778 144.035 185.146 144.27C193.514 144.506 200.102 151.432 199.869 159.733Z" fill="#FFEEAF" stroke="black"/>
</g>
<g filter="url(#filter2_d_283_227)">
<path d="M24.1568 102.255C15.858 101.941 9.38095 94.9111 9.69746 86.5456C10.014 78.1801 17.0037 71.6592 25.3025 71.9732C33.6013 72.2872 40.0784 79.3176 39.7619 87.6831C39.4454 96.0486 32.4556 102.569 24.1568 102.255Z" fill="#FFEEAF" stroke="black"/>
<path d="M19.1886 130.496C10.8898 130.182 4.41269 123.151 4.72919 114.786C5.04569 106.42 12.0355 99.8993 20.3343 100.213C28.633 100.527 35.1101 107.558 34.7936 115.923C34.4771 124.289 27.4873 130.81 19.1886 130.496Z" fill="#FFEEAF" stroke="black"/>
<path d="M22.0128 157.745C13.714 157.431 7.23691 150.4 7.55341 142.035C7.86991 133.669 14.8597 127.148 23.1585 127.462C31.4572 127.776 37.9343 134.807 37.6178 143.172C37.3013 151.538 30.3115 158.059 22.0128 157.745Z" fill="#FFEEAF" stroke="black"/>
<path d="M36.5509 182.861C28.2521 182.547 21.775 175.517 22.0915 167.151C22.408 158.786 29.3978 152.265 37.6966 152.579C45.9953 152.893 52.4724 159.923 52.1559 168.289C51.8394 176.654 44.8496 183.175 36.5509 182.861Z" fill="#FFEEAF" stroke="black"/>
<path d="M56.4998 201.725C48.2011 201.411 41.724 194.381 42.0405 186.015C42.357 177.65 49.3468 171.129 57.6455 171.443C65.9443 171.757 72.4214 178.787 72.1049 187.153C71.7884 195.518 64.7986 202.039 56.4998 201.725Z" fill="#FFEEAF" stroke="black"/>
</g>
<g filter="url(#filter3_d_283_227)">
<path d="M116.224 20.1058C116.044 11.803 122.676 4.91882 131.045 4.73668C139.415 4.55453 146.34 11.1437 146.521 19.4464C146.702 27.7492 140.07 34.6333 131.7 34.8155C123.33 34.9976 116.405 28.4085 116.224 20.1058Z" fill="#FFEEAF" stroke="black"/>
<path d="M87.7382 16.8277C87.5575 8.52491 94.1898 1.64072 102.559 1.45858C110.929 1.27643 117.854 7.86556 118.035 16.1683C118.216 24.4711 111.583 31.3552 103.214 31.5374C94.8444 31.7195 87.9189 25.1304 87.7382 16.8277Z" fill="#FFEEAF" stroke="black"/>
<path d="M60.706 21.2693C60.5253 12.9666 67.1576 6.08239 75.5271 5.90024C83.8966 5.7181 90.8221 12.3072 91.0028 20.61C91.1835 28.9127 84.5512 35.7969 76.1817 35.9791C67.8122 36.1612 60.8867 29.5721 60.706 21.2693Z" fill="#FFEEAF" stroke="black"/>
<path d="M36.4992 37.2769C36.3185 28.9742 42.9508 22.09 51.3203 21.9079C59.6898 21.7257 66.6153 28.3149 66.796 36.6176C66.9767 44.9204 60.3444 51.8045 51.9749 51.9867C43.6054 52.1688 36.6799 45.5797 36.4992 37.2769Z" fill="#FFEEAF" stroke="black"/>
<path d="M18.8566 58.3137C18.676 50.011 25.3082 43.1268 33.6777 42.9446C42.0472 42.7625 48.9727 49.3516 49.1534 57.6544C49.3341 65.9571 42.7018 72.8413 34.3323 73.0234C25.9628 73.2056 19.0373 66.6164 18.8566 58.3137Z" fill="#FFEEAF" stroke="black"/>
</g>
<circle cx="108.839" cy="111.061" r="90.3985" fill="#FFEEAF"/>
<circle cx="98" cy="102" r="3" fill="#A39872"/>
<circle cx="109" cy="97" r="3" fill="#A39872"/>
<circle cx="122" cy="101" r="3" fill="#A39872"/>
<circle cx="98" cy="113" r="3" fill="#A39872"/>
<circle cx="122" cy="113" r="3" fill="#A39872"/>
<circle cx="111" cy="118" r="3" fill="#A39872"/>
<mask id="path-28-outside-1_283_227" maskUnits="userSpaceOnUse" x="32" y="49" width="49" height="57" fill="black">
<rect fill="white" x="32" y="49" width="49" height="57"/>
<path d="M37 101V54.4545H57.1818C60.7273 54.4545 63.7045 54.9318 66.1136 55.8864C68.5379 56.8409 70.3636 58.1894 71.5909 59.9318C72.8333 61.6742 73.4545 63.7273 73.4545 66.0909C73.4545 67.803 73.0758 69.3636 72.3182 70.7727C71.5758 72.1818 70.5303 73.3636 69.1818 74.3182C67.8333 75.2576 66.2576 75.9091 64.4545 76.2727V76.7273C66.4545 76.803 68.2727 77.3106 69.9091 78.25C71.5455 79.1742 72.8485 80.4545 73.8182 82.0909C74.7879 83.7121 75.2727 85.6212 75.2727 87.8182C75.2727 90.3636 74.6061 92.6288 73.2727 94.6136C71.9545 96.5985 70.0758 98.1591 67.6364 99.2955C65.197 100.432 62.2879 101 58.9091 101H37ZM49.6364 90.9091H55.5455C57.6667 90.9091 59.2576 90.5152 60.3182 89.7273C61.3788 88.9242 61.9091 87.7424 61.9091 86.1818C61.9091 85.0909 61.6591 84.1667 61.1591 83.4091C60.6591 82.6515 59.947 82.0758 59.0227 81.6818C58.1136 81.2879 57.0152 81.0909 55.7273 81.0909H49.6364V90.9091ZM49.6364 73.2727H54.8182C55.9242 73.2727 56.9015 73.0985 57.75 72.75C58.5985 72.4015 59.2576 71.9015 59.7273 71.25C60.2121 70.5833 60.4545 69.7727 60.4545 68.8182C60.4545 67.3788 59.9394 66.2803 58.9091 65.5227C57.8788 64.75 56.5758 64.3636 55 64.3636H49.6364V73.2727Z"/>
</mask>
<path d="M37 101V54.4545H57.1818C60.7273 54.4545 63.7045 54.9318 66.1136 55.8864C68.5379 56.8409 70.3636 58.1894 71.5909 59.9318C72.8333 61.6742 73.4545 63.7273 73.4545 66.0909C73.4545 67.803 73.0758 69.3636 72.3182 70.7727C71.5758 72.1818 70.5303 73.3636 69.1818 74.3182C67.8333 75.2576 66.2576 75.9091 64.4545 76.2727V76.7273C66.4545 76.803 68.2727 77.3106 69.9091 78.25C71.5455 79.1742 72.8485 80.4545 73.8182 82.0909C74.7879 83.7121 75.2727 85.6212 75.2727 87.8182C75.2727 90.3636 74.6061 92.6288 73.2727 94.6136C71.9545 96.5985 70.0758 98.1591 67.6364 99.2955C65.197 100.432 62.2879 101 58.9091 101H37ZM49.6364 90.9091H55.5455C57.6667 90.9091 59.2576 90.5152 60.3182 89.7273C61.3788 88.9242 61.9091 87.7424 61.9091 86.1818C61.9091 85.0909 61.6591 84.1667 61.1591 83.4091C60.6591 82.6515 59.947 82.0758 59.0227 81.6818C58.1136 81.2879 57.0152 81.0909 55.7273 81.0909H49.6364V90.9091ZM49.6364 73.2727H54.8182C55.9242 73.2727 56.9015 73.0985 57.75 72.75C58.5985 72.4015 59.2576 71.9015 59.7273 71.25C60.2121 70.5833 60.4545 69.7727 60.4545 68.8182C60.4545 67.3788 59.9394 66.2803 58.9091 65.5227C57.8788 64.75 56.5758 64.3636 55 64.3636H49.6364V73.2727Z" fill="#FFD950"/>
<path d="M37 101H32V106H37V101ZM37 54.4545V49.4545H32V54.4545H37ZM66.1136 55.8864L64.2718 60.5348L64.2818 60.5387L66.1136 55.8864ZM71.5909 59.9318L67.5031 62.811L67.5115 62.8229L67.5199 62.8347L71.5909 59.9318ZM72.3182 70.7727L67.9143 68.4051L67.9044 68.4235L67.8946 68.442L72.3182 70.7727ZM69.1818 74.3182L72.0398 78.4208L72.0553 78.4101L72.0706 78.3992L69.1818 74.3182ZM64.4545 76.2727L63.466 71.3714L59.4545 72.1805V76.2727H64.4545ZM64.4545 76.7273H59.4545V81.5415L64.2653 81.7237L64.4545 76.7273ZM69.9091 78.25L67.4198 82.5863L67.4349 82.595L67.4501 82.6036L69.9091 78.25ZM73.8182 82.0909L69.5167 84.6399L69.5219 84.6487L69.5272 84.6575L73.8182 82.0909ZM73.2727 94.6136L69.1222 91.8255L69.1149 91.8365L69.1076 91.8475L73.2727 94.6136ZM67.6364 99.2955L65.525 94.7631L65.525 94.7631L67.6364 99.2955ZM49.6364 90.9091H44.6364V95.9091H49.6364V90.9091ZM60.3182 89.7273L63.2998 93.741L63.3182 93.7274L63.3364 93.7136L60.3182 89.7273ZM59.0227 81.6818L57.0347 86.2696L57.0484 86.2756L57.0622 86.2814L59.0227 81.6818ZM49.6364 81.0909V76.0909H44.6364V81.0909H49.6364ZM49.6364 73.2727H44.6364V78.2727H49.6364V73.2727ZM57.75 72.75L59.6496 77.3751H59.6496L57.75 72.75ZM59.7273 71.25L55.6836 68.3091L55.6775 68.3176L55.6714 68.326L59.7273 71.25ZM58.9091 65.5227L55.9091 69.5227L55.9281 69.5369L55.9471 69.551L58.9091 65.5227ZM49.6364 64.3636V59.3636H44.6364V64.3636H49.6364ZM42 101V54.4545H32V101H42ZM37 59.4545H57.1818V49.4545H37V59.4545ZM57.1818 59.4545C60.3137 59.4545 62.6216 59.8809 64.2718 60.5348L67.9555 51.238C64.7874 49.9827 61.1409 49.4545 57.1818 49.4545V59.4545ZM64.2818 60.5387C66.0007 61.2155 66.9525 62.0294 67.5031 62.811L75.6787 57.0526C73.7747 54.3494 71.075 52.4663 67.9455 51.234L64.2818 60.5387ZM67.5199 62.8347C68.0951 63.6414 68.4545 64.654 68.4545 66.0909H78.4545C78.4545 62.8005 77.5716 59.7071 75.662 57.029L67.5199 62.8347ZM68.4545 66.0909C68.4545 67.0363 68.2533 67.7746 67.9143 68.4051L76.7221 73.1404C77.8983 70.9527 78.4545 68.5697 78.4545 66.0909H68.4545ZM67.8946 68.442C67.5328 69.1287 67.0241 69.7197 66.293 70.2372L72.0706 78.3992C74.0365 77.0076 75.6187 75.2349 76.7417 73.1034L67.8946 68.442ZM66.3238 70.2155C65.6006 70.7193 64.6779 71.127 63.466 71.3714L65.443 81.174C67.8372 80.6912 70.066 79.7958 72.0398 78.4208L66.3238 70.2155ZM59.4545 76.2727V76.7273H69.4545V76.2727H59.4545ZM64.2653 81.7237C65.507 81.7707 66.528 82.0743 67.4198 82.5863L72.3984 73.9137C70.0175 72.5469 67.4021 71.8353 64.6438 71.7309L64.2653 81.7237ZM67.4501 82.6036C68.3155 83.0923 68.9872 83.7463 69.5167 84.6399L78.1196 79.5419C76.7098 77.1628 74.7754 75.2562 72.368 73.8964L67.4501 82.6036ZM69.5272 84.6575C69.9618 85.3841 70.2727 86.3757 70.2727 87.8182H80.2727C80.2727 84.8667 79.614 82.0401 78.1092 79.5243L69.5272 84.6575ZM70.2727 87.8182C70.2727 89.438 69.8654 90.7193 69.1222 91.8255L77.4232 97.4017C79.3468 94.5383 80.2727 91.2893 80.2727 87.8182H70.2727ZM69.1076 91.8475C68.362 92.9702 67.241 93.9637 65.525 94.7631L69.7477 103.828C72.9105 102.354 75.5471 100.227 77.4379 97.3798L69.1076 91.8475ZM65.525 94.7631C63.8933 95.5232 61.7394 96 58.9091 96V106C62.8363 106 66.5006 105.34 69.7477 103.828L65.525 94.7631ZM58.9091 96H37V106H58.9091V96ZM49.6364 95.9091H55.5455V85.9091H49.6364V95.9091ZM55.5455 95.9091C58.14 95.9091 60.9951 95.453 63.2998 93.741L57.3366 85.7136C57.4493 85.6298 57.43 85.6854 57.1277 85.7602C56.8209 85.8362 56.3128 85.9091 55.5455 85.9091V95.9091ZM63.3364 93.7136C65.8708 91.7946 66.9091 89.0019 66.9091 86.1818H56.9091C56.9091 86.3984 56.8729 86.3624 56.9496 86.1917C56.9872 86.1077 57.0418 86.0155 57.1128 85.9269C57.1834 85.8388 57.2515 85.7777 57.3 85.741L63.3364 93.7136ZM66.9091 86.1818C66.9091 84.312 66.4722 82.3822 65.3321 80.6549L56.986 86.1633C56.9583 86.1213 56.9367 86.0807 56.9207 86.0449C56.9049 86.0094 56.8975 85.985 56.895 85.976C56.8902 85.9581 56.9091 86.0172 56.9091 86.1818H66.9091ZM65.3321 80.6549C64.2346 78.992 62.7099 77.8182 60.9832 77.0822L57.0622 86.2814C57.1399 86.3145 57.1429 86.3268 57.1064 86.2972C57.0892 86.2833 57.0676 86.2636 57.0446 86.2384C57.0216 86.2131 57.0018 86.1872 56.986 86.1633L65.3321 80.6549ZM61.0108 77.094C59.3163 76.3598 57.5031 76.0909 55.7273 76.0909V86.0909C56.5273 86.0909 56.9109 86.216 57.0347 86.2696L61.0108 77.094ZM55.7273 76.0909H49.6364V86.0909H55.7273V76.0909ZM44.6364 81.0909V90.9091H54.6364V81.0909H44.6364ZM49.6364 78.2727H54.8182V68.2727H49.6364V78.2727ZM54.8182 78.2727C56.4449 78.2727 58.088 78.0164 59.6496 77.3751L55.8504 68.1249C55.715 68.1805 55.4036 68.2727 54.8182 68.2727V78.2727ZM59.6496 77.3751C61.2361 76.7235 62.6933 75.6857 63.7832 74.174L55.6714 68.326C55.7354 68.2372 55.805 68.171 55.8588 68.1302C55.9091 68.092 55.9172 68.0975 55.8504 68.1249L59.6496 77.3751ZM63.771 74.1909C64.9719 72.5396 65.4545 70.6565 65.4545 68.8182H55.4545C55.4545 68.8714 55.4481 68.8241 55.4824 68.7094C55.5187 68.5879 55.5849 68.4448 55.6836 68.3091L63.771 74.1909ZM65.4545 68.8182C65.4545 66.0181 64.3572 63.3225 61.871 61.4945L55.9471 69.551C55.8979 69.5148 55.8233 69.4508 55.7428 69.3542C55.6615 69.2566 55.5929 69.1478 55.5413 69.0377C55.4345 68.8102 55.4545 68.697 55.4545 68.8182H65.4545ZM61.9091 61.5227C59.8345 59.9668 57.4104 59.3636 55 59.3636V69.3636C55.3815 69.3636 55.6142 69.4105 55.7377 69.4471C55.8519 69.481 55.8947 69.5119 55.9091 69.5227L61.9091 61.5227ZM55 59.3636H49.6364V69.3636H55V59.3636ZM44.6364 64.3636V73.2727H54.6364V64.3636H44.6364Z" fill="black" mask="url(#path-28-outside-1_283_227)"/>
<mask id="path-30-outside-2_283_227" maskUnits="userSpaceOnUse" x="81" y="30" width="51" height="58" fill="black">
<rect fill="white" x="81" y="30" width="51" height="58"/>
<path d="M113.545 35.4545H126.182V65.2727C126.182 68.8182 125.333 71.8864 123.636 74.4773C121.955 77.053 119.606 79.0455 116.591 80.4545C113.576 81.8485 110.076 82.5455 106.091 82.5455C102.076 82.5455 98.5606 81.8485 95.5455 80.4545C92.5303 79.0455 90.1818 77.053 88.5 74.4773C86.8333 71.8864 86 68.8182 86 65.2727V35.4545H98.6364V64.1818C98.6364 65.6212 98.9545 66.9091 99.5909 68.0455C100.227 69.1667 101.106 70.0455 102.227 70.6818C103.364 71.3182 104.652 71.6364 106.091 71.6364C107.545 71.6364 108.833 71.3182 109.955 70.6818C111.076 70.0455 111.955 69.1667 112.591 68.0455C113.227 66.9091 113.545 65.6212 113.545 64.1818V35.4545Z"/>
</mask>
<path d="M113.545 35.4545H126.182V65.2727C126.182 68.8182 125.333 71.8864 123.636 74.4773C121.955 77.053 119.606 79.0455 116.591 80.4545C113.576 81.8485 110.076 82.5455 106.091 82.5455C102.076 82.5455 98.5606 81.8485 95.5455 80.4545C92.5303 79.0455 90.1818 77.053 88.5 74.4773C86.8333 71.8864 86 68.8182 86 65.2727V35.4545H98.6364V64.1818C98.6364 65.6212 98.9545 66.9091 99.5909 68.0455C100.227 69.1667 101.106 70.0455 102.227 70.6818C103.364 71.3182 104.652 71.6364 106.091 71.6364C107.545 71.6364 108.833 71.3182 109.955 70.6818C111.076 70.0455 111.955 69.1667 112.591 68.0455C113.227 66.9091 113.545 65.6212 113.545 64.1818V35.4545Z" fill="#FFD950"/>
<path d="M113.545 35.4545V30.4545H108.545V35.4545H113.545ZM126.182 35.4545H131.182V30.4545H126.182V35.4545ZM123.636 74.4773L119.454 71.7377L119.45 71.7437L123.636 74.4773ZM116.591 80.4545L118.689 84.993L118.698 84.9887L118.708 84.9843L116.591 80.4545ZM95.5455 80.4545L93.4285 84.9843L93.4379 84.9887L93.4473 84.993L95.5455 80.4545ZM88.5 74.4773L84.2949 77.1823L84.3041 77.1966L84.3134 77.2109L88.5 74.4773ZM86 35.4545V30.4545H81V35.4545H86ZM98.6364 35.4545H103.636V30.4545H98.6364V35.4545ZM99.5909 68.0455L95.2284 70.4885L95.2354 70.501L95.2425 70.5135L99.5909 68.0455ZM102.227 70.6818L99.7592 75.0302L99.7717 75.0373L99.7843 75.0443L102.227 70.6818ZM109.955 70.6818L112.423 75.0302H112.423L109.955 70.6818ZM112.591 68.0455L116.939 70.5135L116.946 70.501L116.953 70.4885L112.591 68.0455ZM113.545 40.4545H126.182V30.4545H113.545V40.4545ZM121.182 35.4545V65.2727H131.182V35.4545H121.182ZM121.182 65.2727C121.182 67.9897 120.543 70.0742 119.454 71.7377L127.819 77.2168C130.123 73.6985 131.182 69.6467 131.182 65.2727H121.182ZM119.45 71.7437C118.319 73.4759 116.717 74.8764 114.474 75.9248L118.708 84.9843C122.495 83.2145 125.59 80.6302 127.823 77.2109L119.45 71.7437ZM114.493 75.9161C112.253 76.9514 109.494 77.5455 106.091 77.5455V87.5455C110.658 87.5455 114.898 86.7456 118.689 84.993L114.493 75.9161ZM106.091 77.5455C102.652 77.5455 99.8784 76.9492 97.6436 75.9161L93.4473 84.993C97.2428 86.7477 101.5 87.5455 106.091 87.5455V77.5455ZM97.6624 75.9248C95.4191 74.8764 93.8176 73.4759 92.6866 71.7437L84.3134 77.2109C86.546 80.6302 89.6415 83.2145 93.4285 84.9843L97.6624 75.9248ZM92.7051 71.7722C91.6321 70.1043 91 68.0071 91 65.2727H81C81 69.6292 82.0345 73.6684 84.2949 77.1823L92.7051 71.7722ZM91 65.2727V35.4545H81V65.2727H91ZM86 40.4545H98.6364V30.4545H86V40.4545ZM93.6364 35.4545V64.1818H103.636V35.4545H93.6364ZM93.6364 64.1818C93.6364 66.3846 94.1312 68.5293 95.2284 70.4885L103.953 65.6024C103.778 65.2889 103.636 64.8578 103.636 64.1818H93.6364ZM95.2425 70.5135C96.3244 72.4197 97.853 73.9483 99.7592 75.0302L104.695 66.3334C104.359 66.1426 104.13 65.9136 103.939 65.5774L95.2425 70.5135ZM99.7843 75.0443C101.743 76.1415 103.888 76.6364 106.091 76.6364V66.6364C105.415 66.6364 104.984 66.4949 104.67 66.3193L99.7843 75.0443ZM106.091 76.6364C108.298 76.6364 110.456 76.1462 112.423 75.0302L107.487 66.3334C107.21 66.4902 106.793 66.6364 106.091 66.6364V76.6364ZM112.423 75.0302C114.329 73.9483 115.857 72.4197 116.939 70.5135L108.242 65.5774C108.052 65.9136 107.823 66.1426 107.487 66.3334L112.423 75.0302ZM116.953 70.4885C118.051 68.5293 118.545 66.3846 118.545 64.1818H108.545C108.545 64.8578 108.404 65.2889 108.228 65.6024L116.953 70.4885ZM118.545 64.1818V35.4545H108.545V64.1818H118.545Z" fill="black" mask="url(#path-30-outside-2_283_227)"/>
<mask id="path-32-outside-3_283_227" maskUnits="userSpaceOnUse" x="131" y="47" width="50" height="59" fill="black">
<rect fill="white" x="131" y="47" width="50" height="59"/>
<path d="M163.091 68C162.97 66.4848 162.402 65.303 161.386 64.4545C160.386 63.6061 158.864 63.1818 156.818 63.1818C155.515 63.1818 154.447 63.3409 153.614 63.6591C152.795 63.9621 152.189 64.3788 151.795 64.9091C151.402 65.4394 151.197 66.0455 151.182 66.7273C151.152 67.2879 151.25 67.7955 151.477 68.25C151.72 68.6894 152.098 69.0909 152.614 69.4545C153.129 69.803 153.788 70.1212 154.591 70.4091C155.394 70.697 156.348 70.9545 157.455 71.1818L161.273 72C163.848 72.5455 166.053 73.2652 167.886 74.1591C169.72 75.053 171.22 76.1061 172.386 77.3182C173.553 78.5152 174.409 79.8636 174.955 81.3636C175.515 82.8636 175.803 84.5 175.818 86.2727C175.803 89.3333 175.038 91.9242 173.523 94.0455C172.008 96.1667 169.841 97.7803 167.023 98.8864C164.22 99.9924 160.848 100.545 156.909 100.545C152.864 100.545 149.333 99.947 146.318 98.75C143.318 97.553 140.985 95.7121 139.318 93.2273C137.667 90.7273 136.833 87.5303 136.818 83.6364H148.818C148.894 85.0606 149.25 86.2576 149.886 87.2273C150.523 88.197 151.417 88.9318 152.568 89.4318C153.735 89.9318 155.121 90.1818 156.727 90.1818C158.076 90.1818 159.205 90.0152 160.114 89.6818C161.023 89.3485 161.712 88.8864 162.182 88.2955C162.652 87.7045 162.894 87.0303 162.909 86.2727C162.894 85.5606 162.659 84.9394 162.205 84.4091C161.765 83.8636 161.038 83.3788 160.023 82.9545C159.008 82.5152 157.636 82.1061 155.909 81.7273L151.273 80.7273C147.152 79.8333 143.902 78.3409 141.523 76.25C139.159 74.1439 137.985 71.2727 138 67.6364C137.985 64.6818 138.773 62.0985 140.364 59.8864C141.97 57.6591 144.189 55.9242 147.023 54.6818C149.871 53.4394 153.136 52.8182 156.818 52.8182C160.576 52.8182 163.826 53.447 166.568 54.7045C169.311 55.9621 171.424 57.7348 172.909 60.0227C174.409 62.2955 175.167 64.9545 175.182 68H163.091Z"/>
</mask>
<path d="M163.091 68C162.97 66.4848 162.402 65.303 161.386 64.4545C160.386 63.6061 158.864 63.1818 156.818 63.1818C155.515 63.1818 154.447 63.3409 153.614 63.6591C152.795 63.9621 152.189 64.3788 151.795 64.9091C151.402 65.4394 151.197 66.0455 151.182 66.7273C151.152 67.2879 151.25 67.7955 151.477 68.25C151.72 68.6894 152.098 69.0909 152.614 69.4545C153.129 69.803 153.788 70.1212 154.591 70.4091C155.394 70.697 156.348 70.9545 157.455 71.1818L161.273 72C163.848 72.5455 166.053 73.2652 167.886 74.1591C169.72 75.053 171.22 76.1061 172.386 77.3182C173.553 78.5152 174.409 79.8636 174.955 81.3636C175.515 82.8636 175.803 84.5 175.818 86.2727C175.803 89.3333 175.038 91.9242 173.523 94.0455C172.008 96.1667 169.841 97.7803 167.023 98.8864C164.22 99.9924 160.848 100.545 156.909 100.545C152.864 100.545 149.333 99.947 146.318 98.75C143.318 97.553 140.985 95.7121 139.318 93.2273C137.667 90.7273 136.833 87.5303 136.818 83.6364H148.818C148.894 85.0606 149.25 86.2576 149.886 87.2273C150.523 88.197 151.417 88.9318 152.568 89.4318C153.735 89.9318 155.121 90.1818 156.727 90.1818C158.076 90.1818 159.205 90.0152 160.114 89.6818C161.023 89.3485 161.712 88.8864 162.182 88.2955C162.652 87.7045 162.894 87.0303 162.909 86.2727C162.894 85.5606 162.659 84.9394 162.205 84.4091C161.765 83.8636 161.038 83.3788 160.023 82.9545C159.008 82.5152 157.636 82.1061 155.909 81.7273L151.273 80.7273C147.152 79.8333 143.902 78.3409 141.523 76.25C139.159 74.1439 137.985 71.2727 138 67.6364C137.985 64.6818 138.773 62.0985 140.364 59.8864C141.97 57.6591 144.189 55.9242 147.023 54.6818C149.871 53.4394 153.136 52.8182 156.818 52.8182C160.576 52.8182 163.826 53.447 166.568 54.7045C169.311 55.9621 171.424 57.7348 172.909 60.0227C174.409 62.2955 175.167 64.9545 175.182 68H163.091Z" fill="#FFD950"/>
<path d="M163.091 68L158.107 68.3987L158.475 73H163.091V68ZM161.386 64.4545L158.151 68.2671L158.166 68.2791L158.18 68.291L161.386 64.4545ZM153.614 63.6591L155.35 68.3478L155.374 68.3391L155.397 68.3302L153.614 63.6591ZM151.795 64.9091L147.782 61.9275L147.782 61.9275L151.795 64.9091ZM151.182 66.7273L156.175 66.9971L156.179 66.9178L156.181 66.8384L151.182 66.7273ZM151.477 68.25L147.005 70.4861L147.05 70.5767L147.099 70.6654L151.477 68.25ZM152.614 69.4545L149.73 73.5394L149.771 73.5681L149.812 73.596L152.614 69.4545ZM157.455 71.1818L158.502 66.2928L158.482 66.2884L158.461 66.2841L157.455 71.1818ZM161.273 72L160.225 76.889L160.237 76.8915L161.273 72ZM167.886 74.1591L165.695 78.6533L167.886 74.1591ZM172.386 77.3182L168.784 80.7855L168.795 80.7968L168.806 80.8081L172.386 77.3182ZM174.955 81.3636L170.256 83.0724L170.263 83.0932L170.271 83.1141L174.955 81.3636ZM175.818 86.2727L180.818 86.2975L180.818 86.2637L180.818 86.23L175.818 86.2727ZM173.523 94.0455L177.591 96.9516L173.523 94.0455ZM167.023 98.8864L165.196 94.232L165.187 94.2354L167.023 98.8864ZM146.318 98.75L144.465 103.394L144.473 103.397L146.318 98.75ZM139.318 93.2273L135.146 95.9832L135.156 95.9979L135.166 96.0124L139.318 93.2273ZM136.818 83.6364V78.6364H131.799L131.818 83.6558L136.818 83.6364ZM148.818 83.6364L153.811 83.3708L153.559 78.6364H148.818V83.6364ZM149.886 87.2273L145.706 89.9706L149.886 87.2273ZM152.568 89.4318L150.577 94.0181L150.588 94.0229L150.599 94.0275L152.568 89.4318ZM160.114 89.6818L161.835 94.3762L161.835 94.3762L160.114 89.6818ZM162.182 88.2955L166.096 91.4067H166.096L162.182 88.2955ZM162.909 86.2727L167.908 86.3727L167.91 86.2695L167.908 86.1664L162.909 86.2727ZM162.205 84.4091L158.311 87.5457L158.359 87.6051L158.408 87.663L162.205 84.4091ZM160.023 82.9545L158.037 87.5432L158.066 87.5557L158.095 87.5679L160.023 82.9545ZM155.909 81.7273L156.98 76.8433L156.972 76.8415L156.963 76.8397L155.909 81.7273ZM151.273 80.7273L150.213 85.6136L150.219 85.6149L151.273 80.7273ZM141.523 76.25L138.196 79.9831L138.209 79.9943L138.222 80.0055L141.523 76.25ZM138 67.6364L143 67.6572L143 67.634L143 67.6107L138 67.6364ZM140.364 59.8864L136.308 56.9619L136.304 56.967L140.364 59.8864ZM147.023 54.6818L145.024 50.0988L145.015 50.1027L147.023 54.6818ZM166.568 54.7045L164.484 59.2495H164.484L166.568 54.7045ZM172.909 60.0227L168.715 62.7447L168.725 62.7609L168.736 62.7769L172.909 60.0227ZM175.182 68V73H180.207L180.182 67.9751L175.182 68ZM168.075 67.6013C167.864 64.9648 166.794 62.4575 164.593 60.6181L158.18 68.291C158.169 68.2823 158.147 68.2613 158.121 68.2282C158.095 68.195 158.077 68.1643 158.068 68.1437C158.058 68.1241 158.063 68.1276 158.072 68.1644C158.082 68.2023 158.097 68.2776 158.107 68.3987L168.075 67.6013ZM164.621 60.642C162.332 58.6994 159.418 58.1818 156.818 58.1818V68.1818C157.513 68.1818 157.934 68.2558 158.152 68.3166C158.358 68.3739 158.304 68.3963 158.151 68.2671L164.621 60.642ZM156.818 58.1818C155.161 58.1818 153.431 58.3767 151.83 58.988L155.397 68.3302C155.463 68.3051 155.869 68.1818 156.818 68.1818V58.1818ZM151.877 58.9703C150.436 59.504 148.912 60.4065 147.782 61.9275L155.809 67.8907C155.467 68.3511 155.155 68.4203 155.35 68.3478L151.877 58.9703ZM147.782 61.9275C146.749 63.3177 146.22 64.9343 146.183 66.6162L156.181 66.8384C156.178 66.9702 156.154 67.1527 156.084 67.3603C156.013 67.5693 155.914 67.7496 155.809 67.8907L147.782 61.9275ZM146.189 66.4574C146.117 67.7914 146.35 69.1763 147.005 70.4861L155.949 66.0139C156.15 66.4146 156.186 66.7844 156.175 66.9971L146.189 66.4574ZM147.099 70.6654C147.789 71.9148 148.751 72.8484 149.73 73.5394L155.497 65.3697C155.446 65.3334 155.651 65.464 155.855 65.8346L147.099 70.6654ZM149.812 73.596C150.775 74.2472 151.842 74.7351 152.904 75.1158L156.278 65.7024C155.734 65.5074 155.483 65.3589 155.415 65.3131L149.812 73.596ZM152.904 75.1158C153.987 75.504 155.18 75.8189 156.448 76.0795L158.461 66.2841C157.517 66.0902 156.801 65.8899 156.278 65.7024L152.904 75.1158ZM156.407 76.0708L160.225 76.889L162.32 67.111L158.502 66.2928L156.407 76.0708ZM160.237 76.8915C162.522 77.3754 164.317 77.9816 165.695 78.6533L170.078 69.6649C167.789 68.5487 165.175 67.7155 162.309 67.1085L160.237 76.8915ZM165.695 78.6533C167.11 79.3432 168.1 80.0748 168.784 80.7855L175.989 73.8508C174.34 72.1374 172.329 70.7629 170.078 69.6649L165.695 78.6533ZM168.806 80.8081C169.501 81.5219 169.964 82.2701 170.256 83.0724L179.654 79.6549C178.854 77.4572 177.605 75.5084 175.967 73.8283L168.806 80.8081ZM170.271 83.1141C170.607 84.0123 170.808 85.0639 170.818 86.3155L180.818 86.23C180.798 83.9361 180.424 81.715 179.638 79.6132L170.271 83.1141ZM170.818 86.248C170.807 88.46 170.269 89.9982 169.454 91.1393L177.591 96.9516C179.807 93.8503 180.799 90.2067 180.818 86.2975L170.818 86.248ZM169.454 91.1393C168.587 92.3525 167.262 93.4211 165.196 94.232L168.849 103.541C172.42 102.139 175.428 99.9808 177.591 96.9516L169.454 91.1393ZM165.187 94.2354C163.118 95.052 160.404 95.5455 156.909 95.5455V105.545C161.293 105.545 165.321 104.933 168.858 103.537L165.187 94.2354ZM156.909 95.5455C153.345 95.5455 150.466 95.0169 148.163 94.1028L144.473 103.397C148.201 104.877 152.382 105.545 156.909 105.545V95.5455ZM148.171 94.106C146.029 93.2514 144.531 92.0224 143.471 90.4421L135.166 96.0124C137.439 99.4019 140.607 101.855 144.465 103.394L148.171 94.106ZM143.49 90.4713C142.514 88.9942 141.831 86.8254 141.818 83.6169L131.818 83.6558C131.836 88.2353 132.819 92.4603 135.146 95.9832L143.49 90.4713ZM136.818 88.6364H148.818V78.6364H136.818V88.6364ZM143.825 83.9019C143.937 86.0078 144.485 88.1091 145.706 89.9706L154.067 84.484C154.015 84.4061 153.851 84.1134 153.811 83.3708L143.825 83.9019ZM145.706 89.9706C146.921 91.822 148.609 93.1635 150.577 94.0181L154.56 84.8455C154.225 84.7001 154.124 84.5719 154.067 84.484L145.706 89.9706ZM150.599 94.0275C152.529 94.8549 154.617 95.1818 156.727 95.1818V85.1818C155.625 85.1818 154.941 85.0087 154.538 84.8361L150.599 94.0275ZM156.727 95.1818C158.45 95.1818 160.204 94.974 161.835 94.3762L158.392 84.9874C158.205 85.0563 157.702 85.1818 156.727 85.1818V95.1818ZM161.835 94.3762C163.366 93.8146 164.914 92.8936 166.096 91.4067L158.268 85.1842C158.384 85.0382 158.487 84.9596 158.528 84.932C158.565 84.9077 158.533 84.9359 158.392 84.9874L161.835 94.3762ZM166.096 91.4067C167.25 89.9545 167.871 88.2213 167.908 86.3727L157.91 86.1727C157.913 86.0399 157.938 85.8576 158.011 85.6549C158.084 85.4519 158.182 85.2927 158.268 85.1842L166.096 91.4067ZM167.908 86.1664C167.869 84.3225 167.224 82.5827 166.001 81.1551L158.408 87.663C158.278 87.5107 158.143 87.3005 158.045 87.0408C157.947 86.7825 157.914 86.5499 157.91 86.3791L167.908 86.1664ZM166.098 81.2724C164.921 79.811 163.337 78.9207 161.951 78.3412L158.095 87.5679C158.233 87.6256 158.339 87.6761 158.417 87.717C158.496 87.758 158.54 87.7857 158.556 87.7966C158.573 87.8076 158.554 87.7967 158.511 87.7591C158.469 87.7214 158.396 87.6519 158.311 87.5457L166.098 81.2724ZM162.009 78.3659C160.578 77.7466 158.859 77.2553 156.98 76.8433L154.838 86.6112C156.414 86.9568 157.437 87.2837 158.037 87.5432L162.009 78.3659ZM156.963 76.8397L152.327 75.8397L150.219 85.6149L154.855 86.6149L156.963 76.8397ZM152.333 75.8409C148.777 75.0696 146.387 73.8684 144.824 72.4945L138.222 80.0055C141.416 82.8134 145.526 84.5971 150.213 85.6136L152.333 75.8409ZM144.849 72.5169C143.72 71.5108 142.99 70.0961 143 67.6572L133 67.6155C132.98 72.4494 134.598 76.777 138.196 79.9831L144.849 72.5169ZM143 67.6107C142.99 65.6185 143.502 64.0868 144.423 62.8057L136.304 56.967C134.044 60.1101 132.98 63.7451 133 67.662L143 67.6107ZM144.419 62.8108C145.439 61.3965 146.91 60.191 149.031 59.2609L145.015 50.1027C141.469 51.6574 138.5 53.9217 136.308 56.9619L144.419 62.8108ZM149.022 59.2648C151.134 58.3434 153.699 57.8182 156.818 57.8182V47.8182C152.574 47.8182 148.608 48.5354 145.024 50.0988L149.022 59.2648ZM156.818 57.8182C160.028 57.8182 162.535 58.3559 164.484 59.2495L168.652 50.1596C165.116 48.538 161.123 47.8182 156.818 47.8182V57.8182ZM164.484 59.2495C166.459 60.1552 167.8 61.3353 168.715 62.7447L177.103 57.3007C175.048 54.1343 172.162 51.769 168.652 50.1596L164.484 59.2495ZM168.736 62.7769C169.639 64.1456 170.171 65.8313 170.182 68.0249L180.182 67.9751C180.162 64.0778 179.179 60.4453 177.082 57.2685L168.736 62.7769ZM175.182 63H163.091V73H175.182V63Z" fill="black" mask="url(#path-32-outside-3_283_227)"/>
<mask id="path-34-outside-4_283_227" maskUnits="userSpaceOnUse" x="32" y="111" width="58" height="57" fill="black">
<rect fill="white" x="32" y="111" width="58" height="57"/>
<path d="M37 163V116.455H49.6364V135.273H50.2727L64.2727 116.455H79L63.2727 137.182L79.3636 163H64.2727L53.8182 145.545L49.6364 151V163H37Z"/>
</mask>
<path d="M37 163V116.455H49.6364V135.273H50.2727L64.2727 116.455H79L63.2727 137.182L79.3636 163H64.2727L53.8182 145.545L49.6364 151V163H37Z" fill="#FFD950"/>
<path d="M37 163H32V168H37V163ZM37 116.455V111.455H32V116.455H37ZM49.6364 116.455H54.6364V111.455H49.6364V116.455ZM49.6364 135.273H44.6364V140.273H49.6364V135.273ZM50.2727 135.273V140.273H52.7849L54.2843 138.257L50.2727 135.273ZM64.2727 116.455V111.455H61.7606L60.2611 113.47L64.2727 116.455ZM79 116.455L82.9832 119.477L89.0703 111.455H79V116.455ZM63.2727 137.182L59.2896 134.16L57.2076 136.903L59.0294 139.826L63.2727 137.182ZM79.3636 163V168H88.3714L83.607 160.355L79.3636 163ZM64.2727 163L59.9833 165.569L61.4392 168H64.2727V163ZM53.8182 145.545L58.1076 142.976L54.3269 136.664L49.8502 142.503L53.8182 145.545ZM49.6364 151L45.6683 147.958L44.6364 149.304V151H49.6364ZM49.6364 163V168H54.6364V163H49.6364ZM42 163V116.455H32V163H42ZM37 121.455H49.6364V111.455H37V121.455ZM44.6364 116.455V135.273H54.6364V116.455H44.6364ZM49.6364 140.273H50.2727V130.273H49.6364V140.273ZM54.2843 138.257L68.2843 119.439L60.2611 113.47L46.2611 132.288L54.2843 138.257ZM64.2727 121.455H79V111.455H64.2727V121.455ZM75.0168 113.432L59.2896 134.16L67.2559 140.204L82.9832 119.477L75.0168 113.432ZM59.0294 139.826L75.1203 165.645L83.607 160.355L67.5161 134.537L59.0294 139.826ZM79.3636 158H64.2727V168H79.3636V158ZM68.5622 160.431L58.1076 142.976L49.5287 148.115L59.9833 165.569L68.5622 160.431ZM49.8502 142.503L45.6683 147.958L53.6044 154.042L57.7862 148.588L49.8502 142.503ZM44.6364 151V163H54.6364V151H44.6364ZM49.6364 158H37V168H49.6364V158Z" fill="black" mask="url(#path-34-outside-4_283_227)"/>
<mask id="path-36-outside-5_283_227" maskUnits="userSpaceOnUse" x="90" y="137" width="44" height="57" fill="black">
<rect fill="white" x="90" y="137" width="44" height="57"/>
<path d="M95 189V142.455H128.545V152.636H107.636V160.636H126.818V170.818H107.636V178.818H128.455V189H95Z"/>
</mask>
<path d="M95 189V142.455H128.545V152.636H107.636V160.636H126.818V170.818H107.636V178.818H128.455V189H95Z" fill="#FFD950"/>
<path d="M95 189H90V194H95V189ZM95 142.455V137.455H90V142.455H95ZM128.545 142.455H133.545V137.455H128.545V142.455ZM128.545 152.636V157.636H133.545V152.636H128.545ZM107.636 152.636V147.636H102.636V152.636H107.636ZM107.636 160.636H102.636V165.636H107.636V160.636ZM126.818 160.636H131.818V155.636H126.818V160.636ZM126.818 170.818V175.818H131.818V170.818H126.818ZM107.636 170.818V165.818H102.636V170.818H107.636ZM107.636 178.818H102.636V183.818H107.636V178.818ZM128.455 178.818H133.455V173.818H128.455V178.818ZM128.455 189V194H133.455V189H128.455ZM100 189V142.455H90V189H100ZM95 147.455H128.545V137.455H95V147.455ZM123.545 142.455V152.636H133.545V142.455H123.545ZM128.545 147.636H107.636V157.636H128.545V147.636ZM102.636 152.636V160.636H112.636V152.636H102.636ZM107.636 165.636H126.818V155.636H107.636V165.636ZM121.818 160.636V170.818H131.818V160.636H121.818ZM126.818 165.818H107.636V175.818H126.818V165.818ZM102.636 170.818V178.818H112.636V170.818H102.636ZM107.636 183.818H128.455V173.818H107.636V183.818ZM123.455 178.818V189H133.455V178.818H123.455ZM128.455 184H95V194H128.455V184Z" fill="black" mask="url(#path-36-outside-5_283_227)"/>
<mask id="path-38-outside-6_283_227" maskUnits="userSpaceOnUse" x="132" y="112" width="52" height="57" fill="black">
<rect fill="white" x="132" y="112" width="52" height="57"/>
<path d="M137.727 127.636V117.455H178.182V127.636H164.182V164H151.727V127.636H137.727Z"/>
</mask>
<path d="M137.727 127.636V117.455H178.182V127.636H164.182V164H151.727V127.636H137.727Z" fill="#FFD950"/>
<path d="M137.727 127.636H132.727V132.636H137.727V127.636ZM137.727 117.455V112.455H132.727V117.455H137.727ZM178.182 117.455H183.182V112.455H178.182V117.455ZM178.182 127.636V132.636H183.182V127.636H178.182ZM164.182 127.636V122.636H159.182V127.636H164.182ZM164.182 164V169H169.182V164H164.182ZM151.727 164H146.727V169H151.727V164ZM151.727 127.636H156.727V122.636H151.727V127.636ZM142.727 127.636V117.455H132.727V127.636H142.727ZM137.727 122.455H178.182V112.455H137.727V122.455ZM173.182 117.455V127.636H183.182V117.455H173.182ZM178.182 122.636H164.182V132.636H178.182V122.636ZM159.182 127.636V164H169.182V127.636H159.182ZM164.182 159H151.727V169H164.182V159ZM156.727 164V127.636H146.727V164H156.727ZM151.727 122.636H137.727V132.636H151.727V122.636Z" fill="black" mask="url(#path-38-outside-6_283_227)"/>
<defs>
<filter id="filter0_d_283_227" x="135.845" y="20.6751" width="79.1196" height="137.451" filterUnits="userSpaceOnUse" color-interpolation-filters="sRGB">
<feFlood flood-opacity="0" result="BackgroundImageFix"/>
<feColorMatrix in="SourceAlpha" type="matrix" values="0 0 0 0 0 0 0 0 0 0 0 0 0 0 0 0 0 0 127 0" result="hardAlpha"/>
<feOffset dy="4"/>
<feGaussianBlur stdDeviation="2"/>
<feComposite in2="hardAlpha" operator="out"/>
<feColorMatrix type="matrix" values="0 0 0 0 0 0 0 0 0 0 0 0 0 0 0 0 0 0 0.25 0"/>
<feBlend mode="normal" in2="BackgroundImageFix" result="effect1_dropShadow_283_227"/>
<feBlend mode="normal" in="SourceGraphic" in2="effect1_dropShadow_283_227" result="shape"/>
</filter>
<filter id="filter1_d_283_227" x="65.9197" y="143.764" width="138.455" height="77.0871" filterUnits="userSpaceOnUse" color-interpolation-filters="sRGB">
<feFlood flood-opacity="0" result="BackgroundImageFix"/>
<feColorMatrix in="SourceAlpha" type="matrix" values="0 0 0 0 0 0 0 0 0 0 0 0 0 0 0 0 0 0 127 0" result="hardAlpha"/>
<feOffset dy="4"/>
<feGaussianBlur stdDeviation="2"/>
<feComposite in2="hardAlpha" operator="out"/>
<feColorMatrix type="matrix" values="0 0 0 0 0 0 0 0 0 0 0 0 0 0 0 0 0 0 0.25 0"/>
<feBlend mode="normal" in2="BackgroundImageFix" result="effect1_dropShadow_283_227"/>
<feBlend mode="normal" in="SourceGraphic" in2="effect1_dropShadow_283_227" result="shape"/>
</filter>
<filter id="filter2_d_283_227" x="0.218018" y="71.4623" width="76.3979" height="138.774" filterUnits="userSpaceOnUse" color-interpolation-filters="sRGB">
<feFlood flood-opacity="0" result="BackgroundImageFix"/>
<feColorMatrix in="SourceAlpha" type="matrix" values="0 0 0 0 0 0 0 0 0 0 0 0 0 0 0 0 0 0 127 0" result="hardAlpha"/>
<feOffset dy="4"/>
<feGaussianBlur stdDeviation="2"/>
<feComposite in2="hardAlpha" operator="out"/>
<feColorMatrix type="matrix" values="0 0 0 0 0 0 0 0 0 0 0 0 0 0 0 0 0 0 0.25 0"/>
<feBlend mode="normal" in2="BackgroundImageFix" result="effect1_dropShadow_283_227"/>
<feBlend mode="normal" in="SourceGraphic" in2="effect1_dropShadow_283_227" result="shape"/>
</filter>
<filter id="filter3_d_283_227" x="14.353" y="0.954887" width="136.672" height="80.5722" filterUnits="userSpaceOnUse" color-interpolation-filters="sRGB">
<feFlood flood-opacity="0" result="BackgroundImageFix"/>
<feColorMatrix in="SourceAlpha" type="matrix" values="0 0 0 0 0 0 0 0 0 0 0 0 0 0 0 0 0 0 127 0" result="hardAlpha"/>
<feOffset dy="4"/>
<feGaussianBlur stdDeviation="2"/>
<feComposite in2="hardAlpha" operator="out"/>
<feColorMatrix type="matrix" values="0 0 0 0 0 0 0 0 0 0 0 0 0 0 0 0 0 0 0.25 0"/>
<feBlend mode="normal" in2="BackgroundImageFix" result="effect1_dropShadow_283_227"/>
<feBlend mode="normal" in="SourceGraphic" in2="effect1_dropShadow_283_227" result="shape"/>
</filter>
</defs>
</svg>
