<svg width="181" height="171" viewBox="0 0 181 171" fill="none" xmlns="http://www.w3.org/2000/svg">
<path d="M181 85.5C181 81.1571 152.413 77.4929 113.676 76.4524C140.299 49.8071 157.729 28.1381 154.472 25.0619C151.216 21.9857 128.28 38.4976 100.077 63.6048C98.9754 27.0071 95.0968 0 90.5 0C85.9032 0 82.0246 27.0071 80.9233 63.6048C52.7198 38.4524 29.7836 21.9857 26.5275 25.0619C23.2714 28.1381 40.7489 49.8071 67.3243 76.4524C28.5865 77.4929 0 81.1571 0 85.5C0 89.8428 28.5865 93.5071 67.3243 94.5476C40.7011 121.193 23.2714 142.862 26.5275 145.938C29.7836 149.014 52.7198 132.502 80.9233 107.395C82.0246 143.993 85.9032 171 90.5 171C95.0968 171 98.9754 143.993 100.077 107.395C128.28 132.548 151.216 149.014 154.472 145.938C157.729 142.862 140.251 121.193 113.676 94.5476C152.413 93.5071 181 89.8428 181 85.5Z" fill="white"/>
</svg>
