<svg width="279" height="119" viewBox="0 0 279 119" fill="none" xmlns="http://www.w3.org/2000/svg">
<g filter="url(#filter0_d_339_1481)">
<rect x="20" y="16" width="238.226" height="78.5507" rx="20" fill="#1883E5" fill-opacity="0.8" shape-rendering="crispEdges"/>
</g>
<path d="M97.7883 62.528L96.0123 65.072C95.0843 64.512 94.1163 63.68 93.1083 62.576C92.1003 61.472 91.4363 60.432 91.1163 59.456C90.8123 60.576 90.1563 61.744 89.1483 62.96C88.1563 64.176 87.1563 65.056 86.1483 65.6L84.2763 63.176C86.0843 62.104 87.3963 60.768 88.2123 59.168C89.0283 57.552 89.4363 55.568 89.4363 53.216V53.12H85.3323V50.48H96.8283V53.12H92.7003C92.7003 57.568 94.3963 60.704 97.7883 62.528ZM101.628 48.512V56.576H104.508V59.168H101.628V69.896H98.5083V48.512H101.628ZM123.834 69.896H120.858V48.512H123.834V69.896ZM119.514 68.936H116.634V58.4H114.09V55.736H116.634V48.896H119.514V68.936ZM116.49 62.312L114.594 64.784C113.89 64.336 113.154 63.64 112.386 62.696C111.634 61.736 111.138 60.808 110.898 59.912C110.626 60.92 110.098 61.944 109.314 62.984C108.53 64.008 107.674 64.784 106.746 65.312L104.946 62.936C106.402 62.056 107.49 60.856 108.21 59.336C108.946 57.8 109.314 55.848 109.314 53.48V50.576H112.482V53.432C112.482 55.784 112.818 57.648 113.49 59.024C114.162 60.384 115.162 61.48 116.49 62.312ZM144.144 69.896H140.952V48.512H144.144V69.896ZM139.224 56.096H126.528V53.6H139.224V56.096ZM129.624 52.28V49.76H136.224V52.28H129.624ZM127.704 61.376C127.704 60 128.2 58.896 129.192 58.064C130.184 57.216 131.456 56.792 133.008 56.792C134.544 56.792 135.824 57.216 136.848 58.064C137.888 58.912 138.408 60.016 138.408 61.376C138.408 62.736 137.888 63.848 136.848 64.712C135.824 65.56 134.544 65.984 133.008 65.984C131.472 65.984 130.2 65.56 129.192 64.712C128.2 63.848 127.704 62.736 127.704 61.376ZM130.632 61.376C130.632 62.016 130.864 62.552 131.328 62.984C131.792 63.4 132.352 63.608 133.008 63.608C133.664 63.608 134.232 63.4 134.712 62.984C135.192 62.552 135.432 62.016 135.432 61.376C135.432 60.752 135.192 60.224 134.712 59.792C134.248 59.36 133.68 59.144 133.008 59.144C132.352 59.144 131.792 59.36 131.328 59.792C130.864 60.224 130.632 60.752 130.632 61.376ZM172.75 67.256H153.43V64.736H161.518V60.944H155.662V49.88H158.83V53.072H167.302V49.88H170.494V60.944H164.662V64.736H172.75V67.256ZM167.302 58.448V55.496H158.83V58.448H167.302ZM191.979 69.896H188.787V48.512H191.979V69.896ZM185.523 50.72C185.315 57.616 182.091 62.776 175.851 66.2L174.051 63.704C176.355 62.632 178.227 61.16 179.667 59.288C181.107 57.4 181.939 55.408 182.163 53.312H175.371V50.72H185.523Z" fill="black"/>
<defs>
<filter id="filter0_d_339_1481" x="0" y="0" width="278.226" height="118.551" filterUnits="userSpaceOnUse" color-interpolation-filters="sRGB">
<feFlood flood-opacity="0" result="BackgroundImageFix"/>
<feColorMatrix in="SourceAlpha" type="matrix" values="0 0 0 0 0 0 0 0 0 0 0 0 0 0 0 0 0 0 127 0" result="hardAlpha"/>
<feMorphology radius="10" operator="dilate" in="SourceAlpha" result="effect1_dropShadow_339_1481"/>
<feOffset dy="4"/>
<feGaussianBlur stdDeviation="5"/>
<feComposite in2="hardAlpha" operator="out"/>
<feColorMatrix type="matrix" values="0 0 0 0 0.659136 0 0 0 0 0.80658 0 0 0 0 0.941623 0 0 0 0.8 0"/>
<feBlend mode="normal" in2="BackgroundImageFix" result="effect1_dropShadow_339_1481"/>
<feBlend mode="normal" in="SourceGraphic" in2="effect1_dropShadow_339_1481" result="shape"/>
</filter>
</defs>
</svg>
