<svg width="257" height="49" viewBox="0 0 257 49" fill="none" xmlns="http://www.w3.org/2000/svg">
<mask id="path-1-outside-1_284_127" maskUnits="userSpaceOnUse" x="-1" y="-1" width="259" height="51" fill="black">
<rect fill="white" x="-1" y="-1" width="259" height="51"/>
<path d="M0 48V1.45454H20.1818C23.7273 1.45454 26.7045 1.93182 29.1136 2.88636C31.5379 3.84091 33.3636 5.18939 34.5909 6.93182C35.8333 8.67424 36.4545 10.7273 36.4545 13.0909C36.4545 14.803 36.0758 16.3636 35.3182 17.7727C34.5758 19.1818 33.5303 20.3636 32.1818 21.3182C30.8333 22.2576 29.2576 22.9091 27.4545 23.2727V23.7273C29.4545 23.803 31.2727 24.3106 32.9091 25.25C34.5455 26.1742 35.8485 27.4545 36.8182 29.0909C37.7879 30.7121 38.2727 32.6212 38.2727 34.8182C38.2727 37.3636 37.6061 39.6288 36.2727 41.6136C34.9545 43.5985 33.0758 45.1591 30.6364 46.2955C28.197 47.4318 25.2879 48 21.9091 48H0ZM12.6364 37.9091H18.5455C20.6667 37.9091 22.2576 37.5152 23.3182 36.7273C24.3788 35.9242 24.9091 34.7424 24.9091 33.1818C24.9091 32.0909 24.6591 31.1667 24.1591 30.4091C23.6591 29.6515 22.947 29.0758 22.0227 28.6818C21.1136 28.2879 20.0152 28.0909 18.7273 28.0909H12.6364V37.9091ZM12.6364 20.2727H17.8182C18.9242 20.2727 19.9015 20.0985 20.75 19.75C21.5985 19.4015 22.2576 18.9015 22.7273 18.25C23.2121 17.5833 23.4545 16.7727 23.4545 15.8182C23.4545 14.3788 22.9394 13.2803 21.9091 12.5227C20.8788 11.75 19.5758 11.3636 18 11.3636H12.6364V20.2727ZM70.2955 1.45454H82.9318V31.2727C82.9318 34.8182 82.0833 37.8864 80.3864 40.4773C78.7045 43.053 76.3561 45.0455 73.3409 46.4545C70.3258 47.8485 66.8258 48.5455 62.8409 48.5455C58.8258 48.5455 55.3106 47.8485 52.2955 46.4545C49.2803 45.0455 46.9318 43.053 45.25 40.4773C43.5833 37.8864 42.75 34.8182 42.75 31.2727V1.45454H55.3864V30.1818C55.3864 31.6212 55.7045 32.9091 56.3409 34.0455C56.9773 35.1667 57.8561 36.0455 58.9773 36.6818C60.1136 37.3182 61.4015 37.6364 62.8409 37.6364C64.2955 37.6364 65.5833 37.3182 66.7045 36.6818C67.8258 36.0455 68.7045 35.1667 69.3409 34.0455C69.9773 32.9091 70.2955 31.6212 70.2955 30.1818V1.45454ZM114.028 16C113.907 14.4848 113.339 13.303 112.324 12.4545C111.324 11.6061 109.801 11.1818 107.756 11.1818C106.453 11.1818 105.384 11.3409 104.551 11.6591C103.733 11.9621 103.127 12.3788 102.733 12.9091C102.339 13.4394 102.134 14.0455 102.119 14.7273C102.089 15.2879 102.188 15.7955 102.415 16.25C102.657 16.6894 103.036 17.0909 103.551 17.4545C104.066 17.803 104.725 18.1212 105.528 18.4091C106.331 18.697 107.286 18.9545 108.392 19.1818L112.21 20C114.786 20.5455 116.991 21.2652 118.824 22.1591C120.657 23.053 122.157 24.1061 123.324 25.3182C124.491 26.5152 125.347 27.8636 125.892 29.3636C126.453 30.8636 126.741 32.5 126.756 34.2727C126.741 37.3333 125.975 39.9242 124.46 42.0455C122.945 44.1667 120.778 45.7803 117.96 46.8864C115.157 47.9924 111.786 48.5455 107.847 48.5455C103.801 48.5455 100.271 47.947 97.2557 46.75C94.2557 45.553 91.9223 43.7121 90.2557 41.2273C88.6042 38.7273 87.7708 35.5303 87.7557 31.6364H99.7557C99.8314 33.0606 100.188 34.2576 100.824 35.2273C101.46 36.197 102.354 36.9318 103.506 37.4318C104.672 37.9318 106.059 38.1818 107.665 38.1818C109.013 38.1818 110.142 38.0152 111.051 37.6818C111.96 37.3485 112.65 36.8864 113.119 36.2955C113.589 35.7045 113.831 35.0303 113.847 34.2727C113.831 33.5606 113.597 32.9394 113.142 32.4091C112.703 31.8636 111.975 31.3788 110.96 30.9545C109.945 30.5152 108.574 30.1061 106.847 29.7273L102.21 28.7273C98.089 27.8333 94.839 26.3409 92.4602 24.25C90.0966 22.1439 88.9223 19.2727 88.9375 15.6364C88.9223 12.6818 89.7102 10.0985 91.3011 7.88636C92.9072 5.65909 95.1269 3.92424 97.9602 2.68182C100.809 1.43939 104.074 0.81818 107.756 0.81818C111.513 0.81818 114.763 1.44697 117.506 2.70454C120.248 3.96212 122.362 5.73485 123.847 8.02273C125.347 10.2955 126.104 12.9545 126.119 16H114.028ZM131.562 48V1.45454H144.199V20.2727H144.835L158.835 1.45454H173.562L157.835 22.1818L173.926 48H158.835L148.381 30.5455L144.199 36V48H131.562ZM177.312 48V1.45454H210.858V11.6364H189.949V19.6364H209.131V29.8182H189.949V37.8182H210.767V48H177.312ZM215.852 11.6364V1.45454H256.307V11.6364H242.307V48H229.852V11.6364H215.852Z"/>
</mask>
<path d="M0 48V1.45454H20.1818C23.7273 1.45454 26.7045 1.93182 29.1136 2.88636C31.5379 3.84091 33.3636 5.18939 34.5909 6.93182C35.8333 8.67424 36.4545 10.7273 36.4545 13.0909C36.4545 14.803 36.0758 16.3636 35.3182 17.7727C34.5758 19.1818 33.5303 20.3636 32.1818 21.3182C30.8333 22.2576 29.2576 22.9091 27.4545 23.2727V23.7273C29.4545 23.803 31.2727 24.3106 32.9091 25.25C34.5455 26.1742 35.8485 27.4545 36.8182 29.0909C37.7879 30.7121 38.2727 32.6212 38.2727 34.8182C38.2727 37.3636 37.6061 39.6288 36.2727 41.6136C34.9545 43.5985 33.0758 45.1591 30.6364 46.2955C28.197 47.4318 25.2879 48 21.9091 48H0ZM12.6364 37.9091H18.5455C20.6667 37.9091 22.2576 37.5152 23.3182 36.7273C24.3788 35.9242 24.9091 34.7424 24.9091 33.1818C24.9091 32.0909 24.6591 31.1667 24.1591 30.4091C23.6591 29.6515 22.947 29.0758 22.0227 28.6818C21.1136 28.2879 20.0152 28.0909 18.7273 28.0909H12.6364V37.9091ZM12.6364 20.2727H17.8182C18.9242 20.2727 19.9015 20.0985 20.75 19.75C21.5985 19.4015 22.2576 18.9015 22.7273 18.25C23.2121 17.5833 23.4545 16.7727 23.4545 15.8182C23.4545 14.3788 22.9394 13.2803 21.9091 12.5227C20.8788 11.75 19.5758 11.3636 18 11.3636H12.6364V20.2727ZM70.2955 1.45454H82.9318V31.2727C82.9318 34.8182 82.0833 37.8864 80.3864 40.4773C78.7045 43.053 76.3561 45.0455 73.3409 46.4545C70.3258 47.8485 66.8258 48.5455 62.8409 48.5455C58.8258 48.5455 55.3106 47.8485 52.2955 46.4545C49.2803 45.0455 46.9318 43.053 45.25 40.4773C43.5833 37.8864 42.75 34.8182 42.75 31.2727V1.45454H55.3864V30.1818C55.3864 31.6212 55.7045 32.9091 56.3409 34.0455C56.9773 35.1667 57.8561 36.0455 58.9773 36.6818C60.1136 37.3182 61.4015 37.6364 62.8409 37.6364C64.2955 37.6364 65.5833 37.3182 66.7045 36.6818C67.8258 36.0455 68.7045 35.1667 69.3409 34.0455C69.9773 32.9091 70.2955 31.6212 70.2955 30.1818V1.45454ZM114.028 16C113.907 14.4848 113.339 13.303 112.324 12.4545C111.324 11.6061 109.801 11.1818 107.756 11.1818C106.453 11.1818 105.384 11.3409 104.551 11.6591C103.733 11.9621 103.127 12.3788 102.733 12.9091C102.339 13.4394 102.134 14.0455 102.119 14.7273C102.089 15.2879 102.188 15.7955 102.415 16.25C102.657 16.6894 103.036 17.0909 103.551 17.4545C104.066 17.803 104.725 18.1212 105.528 18.4091C106.331 18.697 107.286 18.9545 108.392 19.1818L112.21 20C114.786 20.5455 116.991 21.2652 118.824 22.1591C120.657 23.053 122.157 24.1061 123.324 25.3182C124.491 26.5152 125.347 27.8636 125.892 29.3636C126.453 30.8636 126.741 32.5 126.756 34.2727C126.741 37.3333 125.975 39.9242 124.46 42.0455C122.945 44.1667 120.778 45.7803 117.96 46.8864C115.157 47.9924 111.786 48.5455 107.847 48.5455C103.801 48.5455 100.271 47.947 97.2557 46.75C94.2557 45.553 91.9223 43.7121 90.2557 41.2273C88.6042 38.7273 87.7708 35.5303 87.7557 31.6364H99.7557C99.8314 33.0606 100.188 34.2576 100.824 35.2273C101.46 36.197 102.354 36.9318 103.506 37.4318C104.672 37.9318 106.059 38.1818 107.665 38.1818C109.013 38.1818 110.142 38.0152 111.051 37.6818C111.96 37.3485 112.65 36.8864 113.119 36.2955C113.589 35.7045 113.831 35.0303 113.847 34.2727C113.831 33.5606 113.597 32.9394 113.142 32.4091C112.703 31.8636 111.975 31.3788 110.96 30.9545C109.945 30.5152 108.574 30.1061 106.847 29.7273L102.21 28.7273C98.089 27.8333 94.839 26.3409 92.4602 24.25C90.0966 22.1439 88.9223 19.2727 88.9375 15.6364C88.9223 12.6818 89.7102 10.0985 91.3011 7.88636C92.9072 5.65909 95.1269 3.92424 97.9602 2.68182C100.809 1.43939 104.074 0.81818 107.756 0.81818C111.513 0.81818 114.763 1.44697 117.506 2.70454C120.248 3.96212 122.362 5.73485 123.847 8.02273C125.347 10.2955 126.104 12.9545 126.119 16H114.028ZM131.562 48V1.45454H144.199V20.2727H144.835L158.835 1.45454H173.562L157.835 22.1818L173.926 48H158.835L148.381 30.5455L144.199 36V48H131.562ZM177.312 48V1.45454H210.858V11.6364H189.949V19.6364H209.131V29.8182H189.949V37.8182H210.767V48H177.312ZM215.852 11.6364V1.45454H256.307V11.6364H242.307V48H229.852V11.6364H215.852Z" fill="#FFD950"/>
<path d="M0 48H-1V49H0V48ZM0 1.45454V0.454544H-1V1.45454H0ZM29.1136 2.88636L28.7453 3.81605L28.7473 3.81683L29.1136 2.88636ZM34.5909 6.93182L33.7733 7.50767L33.7767 7.51238L34.5909 6.93182ZM35.3182 17.7727L34.4374 17.2992L34.4335 17.3066L35.3182 17.7727ZM32.1818 21.3182L32.7534 22.1387L32.7596 22.1344L32.1818 21.3182ZM27.4545 23.2727L27.2568 22.2925L26.4545 22.4543V23.2727H27.4545ZM27.4545 23.7273H26.4545V24.6901L27.4167 24.7266L27.4545 23.7273ZM32.9091 25.25L32.4112 26.1173L32.4173 26.1207L32.9091 25.25ZM36.8182 29.0909L35.9579 29.6007L35.96 29.6042L36.8182 29.0909ZM36.2727 41.6136L35.4426 41.056L35.4397 41.0604L36.2727 41.6136ZM30.6364 46.2955L30.2141 45.389L30.6364 46.2955ZM12.6364 37.9091H11.6364V38.9091H12.6364V37.9091ZM23.3182 36.7273L23.9145 37.53L23.9218 37.5245L23.3182 36.7273ZM22.0227 28.6818L21.6251 29.5994L21.6306 29.6017L22.0227 28.6818ZM12.6364 28.0909V27.0909H11.6364V28.0909H12.6364ZM12.6364 20.2727H11.6364V21.2727H12.6364V20.2727ZM20.75 19.75L21.1299 20.675L20.75 19.75ZM22.7273 18.25L21.9185 17.6618L21.9161 17.6652L22.7273 18.25ZM21.9091 12.5227L21.3091 13.3228L21.3167 13.3284L21.9091 12.5227ZM12.6364 11.3636V10.3636H11.6364V11.3636H12.6364ZM1 48V1.45454H-1V48H1ZM0 2.45454H20.1818V0.454544H0V2.45454ZM20.1818 2.45454C23.6445 2.45454 26.488 2.92164 28.7453 3.81605L29.482 1.95668C26.9211 0.941995 23.81 0.454544 20.1818 0.454544V2.45454ZM28.7473 3.81683C31.0305 4.71584 32.6814 5.95738 33.7734 7.50766L35.4085 6.35597C34.0459 4.4214 32.0453 2.96598 29.48 1.9559L28.7473 3.81683ZM33.7767 7.51238C34.8857 9.06768 35.4545 10.9126 35.4545 13.0909H37.4545C37.4545 10.5419 36.781 8.2808 35.4051 6.35125L33.7767 7.51238ZM35.4545 13.0909C35.4545 14.6497 35.1113 16.0458 34.4374 17.2992L36.199 18.2463C37.0403 16.6814 37.4545 14.9564 37.4545 13.0909H35.4545ZM34.4335 17.3066C33.7672 18.5712 32.8291 19.6348 31.6041 20.502L32.7596 22.1344C34.2316 21.0924 35.3843 19.7924 36.2029 18.2389L34.4335 17.3066ZM31.6102 20.4977C30.3868 21.3499 28.9416 21.9527 27.2568 22.2925L27.6522 24.253C29.5735 23.8655 31.2799 23.1652 32.7534 22.1387L31.6102 20.4977ZM26.4545 23.2727V23.7273H28.4545V23.2727H26.4545ZM27.4167 24.7266C29.265 24.7966 30.9238 25.2633 32.4112 26.1173L33.407 24.3827C31.6217 23.3579 29.6441 22.8095 27.4924 22.728L27.4167 24.7266ZM32.4173 26.1207C33.8995 26.9579 35.0762 28.1129 35.9579 29.6007L37.6785 28.5811C36.6208 26.7962 35.1915 25.3906 33.4009 24.3793L32.4173 26.1207ZM35.96 29.6042C36.8227 31.0465 37.2727 32.7721 37.2727 34.8182H39.2727C39.2727 32.4703 38.7531 30.3777 37.6764 28.5776L35.96 29.6042ZM37.2727 34.8182C37.2727 37.1785 36.6579 39.2469 35.4426 41.056L37.1028 42.1713C38.5542 40.0107 39.2727 37.5488 39.2727 34.8182H37.2727ZM35.4397 41.0604C34.236 42.8728 32.5088 44.32 30.2141 45.389L31.0586 47.2019C33.6427 45.9982 35.6731 44.3241 37.1058 42.1669L35.4397 41.0604ZM30.2141 45.389C27.9362 46.4501 25.1782 47 21.9091 47V49C25.3976 49 28.4577 48.4135 31.0586 47.2019L30.2141 45.389ZM21.9091 47H0V49H21.9091V47ZM12.6364 38.9091H18.5455V36.9091H12.6364V38.9091ZM18.5455 38.9091C20.7613 38.9091 22.6051 38.5027 23.9145 37.53L22.7219 35.9245C21.9101 36.5276 20.572 36.9091 18.5455 36.9091V38.9091ZM23.9218 37.5245C25.2772 36.4983 25.9091 34.9943 25.9091 33.1818H23.9091C23.9091 34.4905 23.4804 35.3502 22.7145 35.93L23.9218 37.5245ZM25.9091 33.1818C25.9091 31.9351 25.6217 30.8098 24.9937 29.8582L23.3245 30.9599C23.6965 31.5235 23.9091 32.2467 23.9091 33.1818H25.9091ZM24.9937 29.8582C24.3742 28.9196 23.4996 28.2242 22.4148 27.7619L21.6306 29.6017C22.3944 29.9273 22.944 30.3834 23.3245 30.9599L24.9937 29.8582ZM22.4203 27.7643C21.3542 27.3023 20.1127 27.0909 18.7273 27.0909V29.0909C19.9176 29.0909 20.8731 29.2735 21.6251 29.5994L22.4203 27.7643ZM18.7273 27.0909H12.6364V29.0909H18.7273V27.0909ZM11.6364 28.0909V37.9091H13.6364V28.0909H11.6364ZM12.6364 21.2727H17.8182V19.2727H12.6364V21.2727ZM17.8182 21.2727C19.0284 21.2727 20.1388 21.0821 21.1299 20.675L20.3701 18.825C19.6642 19.1149 18.8201 19.2727 17.8182 19.2727V21.2727ZM21.1299 20.675C22.126 20.2659 22.9447 19.6584 23.5385 18.8348L21.9161 17.6652C21.5704 18.1447 21.071 18.5371 20.3701 18.825L21.1299 20.675ZM23.536 18.8382C24.1641 17.9746 24.4545 16.9495 24.4545 15.8182H22.4545C22.4545 16.596 22.2602 17.1921 21.9185 17.6618L23.536 18.8382ZM24.4545 15.8182C24.4545 14.1066 23.823 12.6887 22.5015 11.7171L21.3167 13.3284C22.0558 13.8719 22.4545 14.6509 22.4545 15.8182H24.4545ZM22.5091 11.7227C21.2699 10.7934 19.7427 10.3636 18 10.3636V12.3636C19.4088 12.3636 20.4876 12.7066 21.3091 13.3227L22.5091 11.7227ZM18 10.3636H12.6364V12.3636H18V10.3636ZM11.6364 11.3636V20.2727H13.6364V11.3636H11.6364ZM70.2955 1.45454V0.454544H69.2955V1.45454H70.2955ZM82.9318 1.45454H83.9318V0.454544H82.9318V1.45454ZM80.3864 40.4773L79.5498 39.9294L79.549 39.9306L80.3864 40.4773ZM73.3409 46.4545L73.7606 47.3622L73.7643 47.3605L73.3409 46.4545ZM52.2955 46.4545L51.8721 47.3605L51.8758 47.3622L52.2955 46.4545ZM45.25 40.4773L44.409 41.0183L44.4127 41.024L45.25 40.4773ZM42.75 1.45454V0.454544H41.75V1.45454H42.75ZM55.3864 1.45454H56.3864V0.454544H55.3864V1.45454ZM56.3409 34.0455L55.4684 34.5341L55.4712 34.5391L56.3409 34.0455ZM58.9773 36.6818L58.4837 37.5515L58.4887 37.5543L58.9773 36.6818ZM66.7045 36.6818L67.1982 37.5515L66.7045 36.6818ZM69.3409 34.0455L70.2106 34.5391L70.2134 34.5341L69.3409 34.0455ZM70.2955 2.45454H82.9318V0.454544H70.2955V2.45454ZM81.9318 1.45454V31.2727H83.9318V1.45454H81.9318ZM81.9318 31.2727C81.9318 34.6525 81.1253 37.5239 79.5498 39.9294L81.2229 41.0252C83.0414 38.2488 83.9318 34.9839 83.9318 31.2727H81.9318ZM79.549 39.9306C77.9774 42.3376 75.7783 44.2117 72.9175 45.5486L73.7643 47.3605C76.9338 45.8793 79.4317 43.7685 81.2237 41.024L79.549 39.9306ZM72.9213 45.5469C70.0613 46.8691 66.7093 47.5455 62.8409 47.5455V49.5455C66.9422 49.5455 70.5902 48.8279 73.7606 47.3622L72.9213 45.5469ZM62.8409 47.5455C58.941 47.5455 55.5742 46.8686 52.7151 45.5469L51.8758 47.3622C55.047 48.8283 58.7106 49.5455 62.8409 49.5455V47.5455ZM52.7188 45.5486C49.8581 44.2117 47.659 42.3376 46.0873 39.9306L44.4127 41.024C46.2047 43.7685 48.7025 45.8793 51.8721 47.3605L52.7188 45.5486ZM46.091 39.9363C44.5431 37.5299 43.75 34.656 43.75 31.2727H41.75C41.75 34.9804 42.6236 38.2428 44.409 41.0183L46.091 39.9363ZM43.75 31.2727V1.45454H41.75V31.2727H43.75ZM42.75 2.45454H55.3864V0.454544H42.75V2.45454ZM54.3864 1.45454V30.1818H56.3864V1.45454H54.3864ZM54.3864 30.1818C54.3864 31.7739 54.7399 33.2331 55.4684 34.5341L57.2134 33.5569C56.6692 32.585 56.3864 31.4685 56.3864 30.1818H54.3864ZM55.4712 34.5391C56.1967 35.8173 57.2054 36.826 58.4837 37.5515L59.4709 35.8121C58.5067 35.2649 57.7578 34.5161 57.2106 33.5518L55.4712 34.5391ZM58.4887 37.5543C59.7896 38.2828 61.2488 38.6364 62.8409 38.6364V36.6364C61.5542 36.6364 60.4377 36.3535 59.4659 35.8093L58.4887 37.5543ZM62.8409 38.6364C64.4459 38.6364 65.908 38.2838 67.1982 37.5515L66.2109 35.8121C65.2587 36.3526 64.145 36.6364 62.8409 36.6364V38.6364ZM67.1982 37.5515C68.4764 36.826 69.4851 35.8173 70.2106 34.5391L68.4712 33.5518C67.924 34.5161 67.1751 35.2649 66.2109 35.8121L67.1982 37.5515ZM70.2134 34.5341C70.9419 33.2331 71.2955 31.7739 71.2955 30.1818H69.2955C69.2955 31.4685 69.0126 32.585 68.4684 33.5569L70.2134 34.5341ZM71.2955 30.1818V1.45454H69.2955V30.1818H71.2955ZM114.028 16L113.032 16.0797L113.105 17H114.028V16ZM112.324 12.4545L111.677 13.2171L111.683 13.2218L112.324 12.4545ZM104.551 11.6591L104.898 12.5969L104.908 12.5933L104.551 11.6591ZM102.733 12.9091L101.93 12.3128V12.3128L102.733 12.9091ZM102.119 14.7273L103.118 14.7812L103.119 14.7654L103.119 14.7495L102.119 14.7273ZM102.415 16.25L101.52 16.6972L101.529 16.7153L101.539 16.7331L102.415 16.25ZM103.551 17.4545L102.974 18.2715L102.983 18.2773L102.991 18.2828L103.551 17.4545ZM108.392 19.1818L108.602 18.204L108.593 18.2023L108.392 19.1818ZM112.21 20L112.001 20.9778L112.003 20.9783L112.21 20ZM118.824 22.1591L118.386 23.0579L118.824 22.1591ZM123.324 25.3182L122.603 26.0117L122.608 26.0162L123.324 25.3182ZM125.892 29.3636L124.952 29.7054L124.955 29.7137L125.892 29.3636ZM126.756 34.2727L127.756 34.2777L127.756 34.2642L126.756 34.2727ZM124.46 42.0455L125.274 42.6267L124.46 42.0455ZM117.96 46.8864L117.595 45.9555L117.593 45.9562L117.96 46.8864ZM97.2557 46.75L96.8851 47.6788L96.8867 47.6794L97.2557 46.75ZM90.2557 41.2273L89.4213 41.7785L89.4252 41.7843L90.2557 41.2273ZM87.7557 31.6364V30.6364H86.7518L86.7557 31.6403L87.7557 31.6364ZM99.7557 31.6364L100.754 31.5832L100.704 30.6364H99.7557V31.6364ZM100.824 35.2273L99.9878 35.7759L100.824 35.2273ZM103.506 37.4318L103.107 38.3491L103.112 38.351L103.506 37.4318ZM111.051 37.6818L111.395 38.6207L111.051 37.6818ZM113.119 36.2955L113.902 36.9177L113.119 36.2955ZM113.847 34.2727L114.846 34.2927L114.847 34.2721L114.846 34.2515L113.847 34.2727ZM113.142 32.4091L112.363 33.0364L112.373 33.0483L112.383 33.0599L113.142 32.4091ZM110.96 30.9545L110.563 31.8723L110.575 31.8772L110.96 30.9545ZM106.847 29.7273L107.061 28.7505L107.057 28.7498L106.847 29.7273ZM102.21 28.7273L101.998 29.7045L101.999 29.7048L102.21 28.7273ZM92.4602 24.25L91.795 24.9966L91.8 25.0011L92.4602 24.25ZM88.9375 15.6364L89.9375 15.6405L89.9375 15.6312L88.9375 15.6364ZM91.3011 7.88636L90.49 7.30148L90.4893 7.3025L91.3011 7.88636ZM97.9602 2.68182L97.5604 1.76521L97.5586 1.766L97.9602 2.68182ZM117.506 2.70454L117.089 3.61353L117.506 2.70454ZM123.847 8.02273L123.008 8.56715L123.012 8.57357L123.847 8.02273ZM126.119 16V17H127.124L127.119 15.995L126.119 16ZM115.025 15.9203C114.886 14.1808 114.217 12.7339 112.965 11.6873L111.683 13.2218C112.461 13.8721 112.928 14.7889 113.032 16.0797L115.025 15.9203ZM112.971 11.692C111.713 10.6247 109.912 10.1818 107.756 10.1818V12.1818C109.69 12.1818 110.935 12.5874 111.677 13.2171L112.971 11.692ZM107.756 10.1818C106.382 10.1818 105.181 10.3481 104.194 10.7249L104.908 12.5933C105.588 12.3337 106.523 12.1818 107.756 12.1818V10.1818ZM104.204 10.7213C103.261 11.0705 102.471 11.5843 101.93 12.3128L103.536 13.5054C103.782 13.1732 104.205 12.8538 104.898 12.5968L104.204 10.7213ZM101.93 12.3128C101.409 13.0151 101.139 13.8232 101.12 14.7051L103.119 14.7495C103.13 14.2677 103.27 13.8637 103.536 13.5054L101.93 12.3128ZM101.121 14.6733C101.082 15.3886 101.208 16.0716 101.52 16.6972L103.309 15.8028C103.167 15.5193 103.096 15.1872 103.118 14.7812L101.121 14.6733ZM101.539 16.7331C101.871 17.3345 102.367 17.8424 102.974 18.2715L104.128 16.6376C103.705 16.3394 103.443 16.0443 103.29 15.7669L101.539 16.7331ZM102.991 18.2828C103.595 18.6919 104.336 19.044 105.191 19.3504L105.866 17.4678C105.115 17.1984 104.537 16.9142 104.111 16.6263L102.991 18.2828ZM105.191 19.3504C106.05 19.6584 107.052 19.9274 108.191 20.1614L108.593 18.2023C107.52 17.9817 106.613 17.7356 105.866 17.4678L105.191 19.3504ZM108.183 20.1596L112.001 20.9778L112.42 19.0222L108.602 18.204L108.183 20.1596ZM112.003 20.9783C114.521 21.5114 116.643 22.2084 118.386 23.0579L119.262 21.2603C117.338 20.3219 115.051 19.5795 112.417 19.0217L112.003 20.9783ZM118.386 23.0579C120.135 23.9111 121.533 24.8998 122.603 26.0117L124.044 24.6247C122.781 23.3123 121.179 22.195 119.262 21.2603L118.386 23.0579ZM122.608 26.0162C123.68 27.1165 124.458 28.3449 124.952 29.7054L126.832 29.0219C126.236 27.3823 125.301 25.9138 124.04 24.6202L122.608 26.0162ZM124.955 29.7137C125.471 31.0934 125.741 32.6128 125.756 34.2813L127.756 34.2642C127.74 32.3872 127.434 30.6339 126.829 29.0135L124.955 29.7137ZM125.756 34.2678C125.741 37.1587 125.022 39.539 123.646 41.4642L125.274 42.6267C126.929 40.3095 127.74 37.508 127.756 34.2777L125.756 34.2678ZM123.646 41.4642C122.261 43.4038 120.263 44.9085 117.595 45.9555L118.326 47.8172C121.294 46.6521 123.629 44.9295 125.274 42.6267L123.646 41.4642ZM117.593 45.9562C114.937 47.0043 111.697 47.5455 107.847 47.5455V49.5455C111.875 49.5455 115.378 48.9805 118.327 47.8166L117.593 45.9562ZM107.847 47.5455C103.897 47.5455 100.497 46.961 97.6247 45.8206L96.8867 47.6794C100.044 48.933 103.705 49.5455 107.847 49.5455V47.5455ZM97.6263 45.8212C94.7979 44.6927 92.6315 42.9742 91.0862 40.6702L89.4252 41.7843C91.2132 44.4501 93.7135 46.4133 96.8851 47.6788L97.6263 45.8212ZM91.0901 40.6761C89.5737 38.3807 88.7703 35.3893 88.7557 31.6325L86.7557 31.6403C86.7714 35.6713 87.6346 39.0739 89.4213 41.7785L91.0901 40.6761ZM87.7557 32.6364H99.7557V30.6364H87.7557V32.6364ZM98.7571 31.6895C98.8401 33.25 99.2344 34.6279 99.9878 35.7759L101.66 34.6786C101.141 33.8873 100.823 32.8712 100.754 31.5832L98.7571 31.6895ZM99.9878 35.7759C100.74 36.922 101.793 37.7782 103.107 38.3491L103.904 36.5146C102.916 36.0855 102.181 35.472 101.66 34.6786L99.9878 35.7759ZM103.112 38.351C104.431 38.9164 105.958 39.1818 107.665 39.1818V37.1818C106.16 37.1818 104.913 36.9472 103.9 36.5127L103.112 38.351ZM107.665 39.1818C109.088 39.1818 110.342 39.0069 111.395 38.6207L110.707 36.7429C109.942 37.0234 108.938 37.1818 107.665 37.1818V39.1818ZM111.395 38.6207C112.429 38.2417 113.29 37.6878 113.902 36.9177L112.336 35.6732C112.009 36.0849 111.491 36.4553 110.707 36.7429L111.395 38.6207ZM113.902 36.9177C114.509 36.1545 114.827 35.2685 114.846 34.2927L112.847 34.2527C112.836 34.7921 112.669 35.2546 112.336 35.6732L113.902 36.9177ZM114.846 34.2515C114.826 33.313 114.51 32.468 113.901 31.7583L112.383 33.0599C112.684 33.4107 112.836 33.8082 112.847 34.294L114.846 34.2515ZM113.921 31.7818C113.334 31.0531 112.435 30.4872 111.346 30.0319L110.575 31.8772C111.515 32.2704 112.071 32.6742 112.363 33.0364L113.921 31.7818ZM111.357 30.0368C110.259 29.5614 108.818 29.1359 107.061 28.7505L106.632 30.7041C108.329 31.0762 109.631 31.4689 110.563 31.8723L111.357 30.0368ZM107.057 28.7498L102.421 27.7498L101.999 29.7048L106.636 30.7048L107.057 28.7498ZM102.422 27.75C98.4141 26.8806 95.3361 25.4464 93.1204 23.4989L91.8 25.0011C94.342 27.2354 97.764 28.7861 101.998 29.7045L102.422 27.75ZM93.1255 23.5034C91.0088 21.6173 89.9233 19.0374 89.9375 15.6405L87.9375 15.6322C87.9214 19.5081 89.1844 22.6706 91.795 24.9966L93.1255 23.5034ZM89.9375 15.6312C89.9233 12.8692 90.656 10.4962 92.113 8.47023L90.4893 7.3025C88.7645 9.70081 87.9214 12.4945 87.9375 15.6415L89.9375 15.6312ZM92.1123 8.47125C93.6011 6.40656 95.6709 4.7776 98.3618 3.59764L97.5586 1.766C94.5829 3.07088 92.2133 4.91161 90.49 7.30148L92.1123 8.47125ZM98.36 3.59842C101.061 2.4202 104.186 1.81818 107.756 1.81818V-0.18182C103.961 -0.18182 100.556 0.458585 97.5604 1.76521L98.36 3.59842ZM107.756 1.81818C111.404 1.81818 114.505 2.42876 117.089 3.61353L117.923 1.79556C115.021 0.46518 111.623 -0.18182 107.756 -0.18182V1.81818ZM117.089 3.61353C119.678 4.80074 121.637 6.45495 123.008 8.56713L124.685 7.47832C123.087 5.01475 120.818 3.1235 117.923 1.79556L117.089 3.61353ZM123.012 8.57357C124.393 10.6655 125.105 13.1299 125.119 16.005L127.119 15.995C127.103 12.7792 126.301 9.92542 124.681 7.47189L123.012 8.57357ZM126.119 15H114.028V17H126.119V15ZM131.562 48H130.562V49H131.562V48ZM131.562 1.45454V0.454544H130.562V1.45454H131.562ZM144.199 1.45454H145.199V0.454544H144.199V1.45454ZM144.199 20.2727H143.199V21.2727H144.199V20.2727ZM144.835 20.2727V21.2727H145.338L145.638 20.8696L144.835 20.2727ZM158.835 1.45454V0.454544H158.333L158.033 0.85765L158.835 1.45454ZM173.562 1.45454L174.359 2.05901L175.577 0.454544H173.562V1.45454ZM157.835 22.1818L157.039 21.5774L156.622 22.1261L156.987 22.7107L157.835 22.1818ZM173.926 48V49H175.728L174.775 47.4711L173.926 48ZM158.835 48L157.977 48.5138L158.269 49H158.835V48ZM148.381 30.5455L149.239 30.0316L148.482 28.7692L147.587 29.937L148.381 30.5455ZM144.199 36L143.405 35.3916L143.199 35.6608V36H144.199ZM144.199 48V49H145.199V48H144.199ZM132.562 48V1.45454H130.562V48H132.562ZM131.562 2.45454H144.199V0.454544H131.562V2.45454ZM143.199 1.45454V20.2727H145.199V1.45454H143.199ZM144.199 21.2727H144.835V19.2727H144.199V21.2727ZM145.638 20.8696L159.638 2.05144L158.033 0.85765L144.033 19.6758L145.638 20.8696ZM158.835 2.45454H173.562V0.454544H158.835V2.45454ZM172.766 0.850081L157.039 21.5774L158.632 22.7863L174.359 2.05901L172.766 0.850081ZM156.987 22.7107L173.077 48.5289L174.775 47.4711L158.684 21.6529L156.987 22.7107ZM173.926 47H158.835V49H173.926V47ZM159.693 47.4862L149.239 30.0316L147.523 31.0593L157.977 48.5138L159.693 47.4862ZM147.587 29.937L143.405 35.3916L144.992 36.6084L149.174 31.1539L147.587 29.937ZM143.199 36V48H145.199V36H143.199ZM144.199 47H131.562V49H144.199V47ZM177.312 48H176.312V49H177.312V48ZM177.312 1.45454V0.454544H176.312V1.45454H177.312ZM210.858 1.45454H211.858V0.454544H210.858V1.45454ZM210.858 11.6364V12.6364H211.858V11.6364H210.858ZM189.949 11.6364V10.6364H188.949V11.6364H189.949ZM189.949 19.6364H188.949V20.6364H189.949V19.6364ZM209.131 19.6364H210.131V18.6364H209.131V19.6364ZM209.131 29.8182V30.8182H210.131V29.8182H209.131ZM189.949 29.8182V28.8182H188.949V29.8182H189.949ZM189.949 37.8182H188.949V38.8182H189.949V37.8182ZM210.767 37.8182H211.767V36.8182H210.767V37.8182ZM210.767 48V49H211.767V48H210.767ZM178.312 48V1.45454H176.312V48H178.312ZM177.312 2.45454H210.858V0.454544H177.312V2.45454ZM209.858 1.45454V11.6364H211.858V1.45454H209.858ZM210.858 10.6364H189.949V12.6364H210.858V10.6364ZM188.949 11.6364V19.6364H190.949V11.6364H188.949ZM189.949 20.6364H209.131V18.6364H189.949V20.6364ZM208.131 19.6364V29.8182H210.131V19.6364H208.131ZM209.131 28.8182H189.949V30.8182H209.131V28.8182ZM188.949 29.8182V37.8182H190.949V29.8182H188.949ZM189.949 38.8182H210.767V36.8182H189.949V38.8182ZM209.767 37.8182V48H211.767V37.8182H209.767ZM210.767 47H177.312V49H210.767V47ZM215.852 11.6364H214.852V12.6364H215.852V11.6364ZM215.852 1.45454V0.454544H214.852V1.45454H215.852ZM256.307 1.45454H257.307V0.454544H256.307V1.45454ZM256.307 11.6364V12.6364H257.307V11.6364H256.307ZM242.307 11.6364V10.6364H241.307V11.6364H242.307ZM242.307 48V49H243.307V48H242.307ZM229.852 48H228.852V49H229.852V48ZM229.852 11.6364H230.852V10.6364H229.852V11.6364ZM216.852 11.6364V1.45454H214.852V11.6364H216.852ZM215.852 2.45454H256.307V0.454544H215.852V2.45454ZM255.307 1.45454V11.6364H257.307V1.45454H255.307ZM256.307 10.6364H242.307V12.6364H256.307V10.6364ZM241.307 11.6364V48H243.307V11.6364H241.307ZM242.307 47H229.852V49H242.307V47ZM230.852 48V11.6364H228.852V48H230.852ZM229.852 10.6364H215.852V12.6364H229.852V10.6364Z" fill="black" mask="url(#path-1-outside-1_284_127)"/>
</svg>
