<svg width="163" height="163" viewBox="0 0 163 163" fill="none" xmlns="http://www.w3.org/2000/svg">
<path fill-rule="evenodd" clip-rule="evenodd" d="M95.3823 40.8821C91.5653 39.5744 87.4339 39.5076 83.5861 40.6915C79.7384 41.8754 76.3741 44.2485 73.9804 47.4672L65.5982 58.7388L107.953 73.254L108.246 59.2104C108.33 55.2001 107.129 51.2623 104.816 47.9671C102.503 44.672 99.1991 42.1905 95.3823 40.8821ZM118.559 76.8889L118.923 59.4738C119.056 53.2075 117.179 47.054 113.566 41.9049C109.953 36.7557 104.79 32.8783 98.8258 30.8344C92.8617 28.7904 86.4059 28.6861 80.3937 30.5364C74.3816 32.3868 69.1252 36.0958 65.3862 41.1262L54.9919 55.1039L43.0358 51.0064C41.4573 50.4655 39.7748 50.2993 38.1231 50.5211C36.4714 50.743 34.8965 51.3467 33.5243 52.284C32.1521 53.2213 31.0208 54.4661 30.221 55.9187C29.4213 57.3713 28.9752 58.9914 28.9186 60.6493L28.2146 81.2314L27.3476 106.641C27.2309 110.059 28.2225 113.428 30.1759 116.25C32.1293 119.072 34.9409 121.198 38.1952 122.314L90.5999 140.273C93.8538 141.387 97.3774 141.432 100.65 140.401C103.923 139.369 106.772 137.317 108.775 134.547L123.681 113.949L135.75 97.2614C136.722 95.9173 137.364 94.3642 137.623 92.7263C137.882 91.0885 137.752 89.4115 137.244 87.8295C136.735 86.2476 135.861 84.8047 134.693 83.6164C133.524 82.4281 132.094 81.5274 130.515 80.9863L118.559 76.8889ZM55.2447 66.4161L39.5931 61.0521L39.0243 77.6955L58.1339 84.2446L61.2253 68.4657L55.2447 66.4161ZM71.4322 71.9637L68.3357 87.7408L88.0014 94.4804L95.2382 80.1222L71.4271 71.9619L71.4322 71.9637ZM105.44 83.6185L98.2032 97.9767L117.313 104.526L127.072 91.032L105.44 83.6185ZM110.806 113.521L93.3804 107.549L83.7397 126.697L94.0376 130.226C95.1224 130.597 96.2972 130.613 97.3885 130.269C98.4798 129.925 99.4297 129.241 100.098 128.318L110.801 113.52L110.806 113.521ZM73.5378 123.2L83.1785 104.053L66.2681 98.2578L62.1428 119.295L73.5378 123.2ZM51.9359 115.797L56.0662 94.7615L38.6452 88.7912L38.0221 107.044C37.9832 108.183 38.3137 109.306 38.9649 110.247C39.616 111.188 40.5532 111.896 41.638 112.268L51.9359 115.797Z" fill="white"/>
</svg>
