<svg width="225" height="423" viewBox="0 0 225 423" fill="none" xmlns="http://www.w3.org/2000/svg">
<path d="M218.58 169.059C222.73 155.891 224.922 141.752 224.922 126.993C224.922 57.0011 174.504 0 112.422 0C50.3392 0 0 57.0011 0 126.993C0 141.752 2.27035 155.891 6.34133 169.059C2.19207 182.227 0 196.367 0 211.125C0 225.884 2.27035 240.023 6.34133 253.191C2.19207 266.359 0 280.499 0 295.257C0 365.249 50.4175 422.25 112.5 422.25C174.582 422.25 225 365.337 225 295.257C225 280.499 222.73 266.359 218.659 253.191C222.808 240.023 225 225.884 225 211.125C225 196.367 222.73 182.227 218.58 169.059ZM3.9144 126.993C3.9144 59.3872 52.6096 4.41869 112.5 4.41869C172.39 4.41869 221.086 59.3872 221.086 126.993C221.086 139.366 219.442 151.296 216.388 162.519C199.478 116.565 159.238 84.2203 112.5 84.2203C65.762 84.2203 25.5219 116.565 8.61169 162.519C5.55845 151.296 3.9144 139.366 3.9144 126.993ZM112.5 253.898C144.52 253.898 173.486 238.698 193.998 214.395C202.844 225.707 209.812 238.786 214.509 253.191C199.243 300.118 159.316 333.611 112.578 333.611C65.8403 333.611 25.8351 300.029 10.6472 253.191C15.3445 238.786 22.3121 225.707 31.1587 214.395C51.5136 238.698 80.4802 253.898 112.5 253.898ZM112.5 249.479C81.4979 249.479 53.4708 234.721 33.6639 211.125C53.4708 187.529 81.4979 172.771 112.5 172.771C143.502 172.771 171.529 187.529 191.336 211.125C171.529 234.721 143.502 249.479 112.5 249.479ZM112.5 168.352C80.4802 168.352 51.5136 183.552 31.0021 207.855C22.1555 196.543 15.1879 183.464 10.4906 169.059C25.7568 122.133 65.6837 88.639 112.422 88.639C159.16 88.639 199.165 122.221 214.353 169.059C209.656 183.464 202.688 196.543 193.841 207.855C173.486 183.552 144.52 168.352 112.5 168.352ZM3.9144 211.125C3.9144 198.753 5.55845 186.822 8.61169 175.599C13.4656 188.678 20.12 200.697 28.3403 211.125C20.12 221.553 13.3873 233.572 8.61169 246.651C5.55845 235.428 3.9144 223.497 3.9144 211.125ZM221.086 295.257C221.086 362.863 172.39 417.832 112.5 417.832C52.6096 417.832 3.9144 362.863 3.9144 295.257C3.9144 282.885 5.55845 270.954 8.61169 259.731C25.5219 305.685 65.762 338.03 112.5 338.03C159.238 338.03 199.478 305.685 216.388 259.731C219.442 270.954 221.086 282.885 221.086 295.257ZM196.66 211.125C204.88 200.697 211.613 188.678 216.388 175.599C219.442 186.822 221.086 198.753 221.086 211.125C221.086 223.497 219.442 235.428 216.388 246.651C211.534 233.572 204.88 221.553 196.66 211.125Z" fill="white"/>
</svg>
