<svg width="181" height="193" viewBox="0 0 181 193" fill="none" xmlns="http://www.w3.org/2000/svg">
<path d="M181 96.273C181 91.383 152.413 87.257 113.676 86.0854C140.299 56.0829 157.729 31.6835 154.472 28.2197C151.216 24.7559 128.28 43.3483 100.077 71.619C98.9754 30.4101 95.0968 0 90.5 0C85.9032 0 82.0246 30.4101 80.9233 71.619C52.7198 43.2974 29.7836 24.7559 26.5275 28.2197C23.2714 31.6835 40.7489 56.0829 67.3243 86.0854C28.5865 87.257 0 91.383 0 96.273C0 101.163 28.5865 105.289 67.3243 106.461C40.7011 136.463 23.2714 160.863 26.5275 164.326C29.7836 167.79 52.7198 149.198 80.9233 120.927C82.0246 162.136 85.9032 192.546 90.5 192.546C95.0968 192.546 98.9754 162.136 100.077 120.927C128.28 149.249 151.216 167.79 154.472 164.326C157.729 160.863 140.251 136.463 113.676 106.461C152.413 105.289 181 101.163 181 96.273Z" fill="white"/>
</svg>
