<svg width="305" height="306" viewBox="0 0 305 306" fill="none" xmlns="http://www.w3.org/2000/svg">
<g filter="url(#filter0_d_202_107)">
<path d="M77.3 25C77.3 37.9563 66.6221 48.5 53.4 48.5C40.1779 48.5 29.5 37.9563 29.5 25C29.5 12.0437 40.1779 1.5 53.4 1.5C66.6221 1.5 77.3 12.0437 77.3 25Z" fill="#FFD950" stroke="black" stroke-width="3"/>
<path d="M129.5 25C129.5 37.9238 118.587 48.5 105 48.5C91.413 48.5 80.5 37.9238 80.5 25C80.5 12.0762 91.413 1.5 105 1.5C118.587 1.5 129.5 12.0762 129.5 25Z" fill="#FFD950" stroke="black" stroke-width="3"/>
<path d="M179.916 25C179.916 37.9563 169.238 48.5 156.016 48.5C142.794 48.5 132.116 37.9563 132.116 25C132.116 12.0437 142.794 1.5 156.016 1.5C169.238 1.5 179.916 12.0437 179.916 25Z" fill="#FFD950" stroke="black" stroke-width="3"/>
<path d="M230.716 25C230.716 37.9563 220.038 48.5 206.816 48.5C193.594 48.5 182.916 37.9563 182.916 25C182.916 12.0437 193.594 1.5 206.816 1.5C220.038 1.5 230.716 12.0437 230.716 25Z" fill="#FFD950" stroke="black" stroke-width="3"/>
<path d="M280.5 25C280.5 37.9563 269.822 48.5 256.6 48.5C243.378 48.5 232.7 37.9563 232.7 25C232.7 12.0437 243.378 1.5 256.6 1.5C269.822 1.5 280.5 12.0437 280.5 25Z" fill="#FFD950" stroke="black" stroke-width="3"/>
<path d="M76.7 273C76.7 285.945 65.9438 296.5 52.6 296.5C39.2562 296.5 28.5 285.945 28.5 273C28.5 260.055 39.2562 249.5 52.6 249.5C65.9438 249.5 76.7 260.055 76.7 273Z" fill="#FFD950" stroke="black" stroke-width="3"/>
<path d="M129.119 273C129.119 285.902 118.044 296.5 104.207 296.5C90.369 296.5 79.2939 285.902 79.2939 273C79.2939 260.098 90.369 249.5 104.207 249.5C118.044 249.5 129.119 260.098 129.119 273Z" fill="#FFD950" stroke="black" stroke-width="3"/>
<path d="M180.124 273C180.124 285.945 169.368 296.5 156.024 296.5C142.68 296.5 131.924 285.945 131.924 273C131.924 260.055 142.68 249.5 156.024 249.5C169.368 249.5 180.124 260.055 180.124 273Z" fill="#FFD950" stroke="black" stroke-width="3"/>
<path d="M231.324 273C231.324 285.945 220.568 296.5 207.224 296.5C193.88 296.5 183.124 285.945 183.124 273C183.124 260.055 193.88 249.5 207.224 249.5C220.568 249.5 231.324 260.055 231.324 273Z" fill="#FFD950" stroke="black" stroke-width="3"/>
<path d="M281.5 273C281.5 285.945 270.744 296.5 257.4 296.5C244.056 296.5 233.3 285.945 233.3 273C233.3 260.055 244.056 249.5 257.4 249.5C270.744 249.5 281.5 260.055 281.5 273Z" fill="#FFD950" stroke="black" stroke-width="3"/>
<circle cx="276" cy="245" r="23.5" transform="rotate(-90 276 245)" fill="#FFD950" stroke="black" stroke-width="3"/>
<circle cx="276" cy="196" r="23.5" transform="rotate(-90 276 196)" fill="#FFD950" stroke="black" stroke-width="3"/>
<circle cx="276" cy="147" r="23.5" transform="rotate(-90 276 147)" fill="#FFD950" stroke="black" stroke-width="3"/>
<circle cx="276" cy="98" r="23.5" transform="rotate(-90 276 98)" fill="#FFD950" stroke="black" stroke-width="3"/>
<circle cx="276" cy="49" r="23.5" transform="rotate(-90 276 49)" fill="#FFD950" stroke="black" stroke-width="3"/>
<circle cx="29" cy="249" r="23.5" transform="rotate(-90 29 249)" fill="#FFD950" stroke="black" stroke-width="3"/>
<circle cx="29" cy="199" r="23.5" transform="rotate(-90 29 199)" fill="#FFD950" stroke="black" stroke-width="3"/>
<path d="M29 124.5C41.8975 124.5 52.5 135.609 52.5 149.5C52.5 163.391 41.8975 174.5 29 174.5C16.1025 174.5 5.5 163.391 5.5 149.5C5.5 135.609 16.1025 124.5 29 124.5Z" fill="#FFD950" stroke="black" stroke-width="3"/>
<circle cx="29" cy="98" r="23.5" transform="rotate(-90 29 98)" fill="#FFD950" stroke="black" stroke-width="3"/>
<circle cx="29" cy="49" r="23.5" transform="rotate(-90 29 49)" fill="#FFD950" stroke="black" stroke-width="3"/>
<rect x="30" y="24" width="250" height="250" fill="#FFD950"/>
<path d="M154 108.143C154 117.702 151.738 126.307 148.132 132.489C144.512 138.695 139.658 142.286 134.5 142.286C129.342 142.286 124.488 138.695 120.868 132.489C117.262 126.307 115 117.702 115 108.143C115 98.5836 117.262 89.9783 120.868 83.797C124.488 77.5911 129.342 74 134.5 74C139.658 74 144.512 77.5911 148.132 83.797C151.738 89.9783 154 98.5836 154 108.143Z" fill="white" stroke="black" stroke-width="2"/>
<path d="M150.486 108.143C150.486 114.455 148.885 120.122 146.349 124.179C143.805 128.251 140.417 130.571 136.843 130.571C133.269 130.571 129.882 128.251 127.337 124.179C124.801 120.122 123.2 114.455 123.2 108.143C123.2 101.831 124.801 96.1636 127.337 92.1064C129.882 88.0352 133.269 85.7144 136.843 85.7144C140.417 85.7144 143.805 88.0352 146.349 92.1064C148.885 96.1636 150.486 101.831 150.486 108.143Z" fill="black" stroke="black" stroke-width="2"/>
<path d="M195 108.143C195 117.702 192.738 126.307 189.132 132.489C185.512 138.695 180.658 142.286 175.5 142.286C170.342 142.286 165.488 138.695 161.868 132.489C158.262 126.307 156 117.702 156 108.143C156 98.5836 158.262 89.9783 161.868 83.797C165.488 77.5911 170.342 74 175.5 74C180.658 74 185.512 77.5911 189.132 83.797C192.738 89.9783 195 98.5836 195 108.143Z" fill="white" stroke="black" stroke-width="2"/>
<path d="M184.458 108.143C184.458 114.47 182.981 120.148 180.645 124.211C178.293 128.301 175.196 130.571 171.986 130.571C168.777 130.571 165.679 128.301 163.327 124.211C160.991 120.148 159.515 114.47 159.515 108.143C159.515 101.816 160.991 96.1374 163.327 92.0749C165.679 87.9853 168.777 85.7144 171.986 85.7144C175.196 85.7144 178.293 87.9853 180.645 92.0749C182.981 96.1374 184.458 101.816 184.458 108.143Z" fill="black" stroke="black" stroke-width="2"/>
<circle cx="177.843" cy="93.5001" r="2.92857" fill="white"/>
<circle cx="145.043" cy="95.8428" r="2.92857" fill="white"/>
<path d="M163 138.5C163 139.893 162.22 141.244 160.778 142.286C159.338 143.326 157.298 144 155 144C152.702 144 150.662 143.326 149.222 142.286C147.78 141.244 147 139.893 147 138.5C147 137.107 147.78 135.756 149.222 134.714C150.662 133.674 152.702 133 155 133C157.298 133 159.338 133.674 160.778 134.714C162.22 135.756 163 137.107 163 138.5Z" stroke="black" stroke-width="2"/>
<circle cx="155" cy="165" r="10" fill="#DF3354" stroke="black" stroke-width="4"/>
</g>
<defs>
<filter id="filter0_d_202_107" x="0" y="0" width="305" height="306" filterUnits="userSpaceOnUse" color-interpolation-filters="sRGB">
<feFlood flood-opacity="0" result="BackgroundImageFix"/>
<feColorMatrix in="SourceAlpha" type="matrix" values="0 0 0 0 0 0 0 0 0 0 0 0 0 0 0 0 0 0 127 0" result="hardAlpha"/>
<feOffset dy="4"/>
<feGaussianBlur stdDeviation="2"/>
<feComposite in2="hardAlpha" operator="out"/>
<feColorMatrix type="matrix" values="0 0 0 0 0 0 0 0 0 0 0 0 0 0 0 0 0 0 0.25 0"/>
<feBlend mode="normal" in2="BackgroundImageFix" result="effect1_dropShadow_202_107"/>
<feBlend mode="normal" in="SourceGraphic" in2="effect1_dropShadow_202_107" result="shape"/>
</filter>
</defs>
</svg>
