<svg width="300" height="300" viewBox="0 0 300 300" fill="none" xmlns="http://www.w3.org/2000/svg">
<circle cx="150" cy="150" r="150" fill="white"/>
<path fill-rule="evenodd" clip-rule="evenodd" d="M150.5 128C151.241 128 151.951 128.29 152.474 128.806C152.998 129.322 153.292 130.021 153.292 130.751V147.251H170.042C170.782 147.251 171.492 147.541 172.016 148.057C172.54 148.573 172.834 149.272 172.834 150.002C172.834 150.731 172.54 151.43 172.016 151.946C171.492 152.462 170.782 152.752 170.042 152.752H153.292V169.252C153.292 169.982 152.998 170.681 152.474 171.197C151.951 171.713 151.241 172.003 150.5 172.003C149.76 172.003 149.05 171.713 148.526 171.197C148.003 170.681 147.709 169.982 147.709 169.252V152.752H130.959C130.218 152.752 129.508 152.462 128.985 151.946C128.461 151.43 128.167 150.731 128.167 150.002C128.167 149.272 128.461 148.573 128.985 148.057C129.508 147.541 130.218 147.251 130.959 147.251H147.709V130.751C147.709 130.021 148.003 129.322 148.526 128.806C149.05 128.29 149.76 128 150.5 128V128Z" fill="black"/>
</svg>
